<?xml version="1.0" standalone="no"?>
<!DOCTYPE svg PUBLIC "-//W3C//DTD SVG 1.1//EN" "http://www.w3.org/Graphics/SVG/1.1/DTD/svg11.dtd" >
<svg>
<metadata>
Created by FontForge 20090622 at Sun Feb 21 01:00:36 2016
 By deploy user
(c) 2001 by Jeffrey N. Levine. Freeware, not for sale.
</metadata>
<defs>
<font id="DotsAllForNowJL" horiz-adv-x="387" >
  <font-face 
    font-family="Dots All For Now JL"
    font-weight="400"
    font-stretch="normal"
    units-per-em="1000"
    panose-1="0 0 4 0 0 0 0 0 0 0"
    ascent="800"
    descent="-200"
    x-height="781"
    cap-height="781"
    bbox="-4 -128 893 810"
    underline-thickness="20"
    underline-position="-123"
    unicode-range="U+0020-U+201D"
  />
<missing-glyph horiz-adv-x="500" 
d="M63 0v800h375v-800h-375zM125 63h250v675h-250v-675z" />
    <glyph glyph-name=".notdef" horiz-adv-x="500" 
d="M63 0v800h375v-800h-375zM125 63h250v675h-250v-675z" />
    <glyph glyph-name=".null" horiz-adv-x="0" 
 />
    <glyph glyph-name="nonmarkingreturn" 
 />
    <glyph glyph-name="space" unicode=" " 
 />
    <glyph glyph-name="exclam" unicode="!" horiz-adv-x="248" 
d="M-2 51q0 21 15 36t36 15t36 -15t15 -36t-15 -36t-36 -15t-36 15t-15 36zM-2 277q0 21 14.5 36t35.5 15t36 -15t15 -36t-15 -35.5t-36 -14.5t-35.5 14.5t-14.5 35.5zM-3 391q0 21 15 35.5t36 14.5t36 -14.5t15 -35.5t-15 -36t-36 -15t-36 15t-15 36zM-3 504q0 21 15 36
t36 15t36 -15t15 -36t-15 -36t-36 -15t-36 15t-15 36zM-3 617q0 21 15 36t36 15t35.5 -15t14.5 -36t-14.5 -36t-35.5 -15t-36 15t-15 36zM-3 730q0 21 14.5 36t35.5 15t36 -15t15 -36t-15 -35.5t-36 -14.5t-35.5 14.5t-14.5 35.5z" />
    <glyph glyph-name="quotedbl" unicode="&#x22;" horiz-adv-x="386" 
d="M-3 617q0 21 15 36t36 15t35.5 -15t14.5 -36t-14.5 -36t-35.5 -15t-36 15t-15 36zM-3 730q0 21 14.5 36t35.5 15t36 -15t15 -36t-15 -35.5t-36 -14.5t-35.5 14.5t-14.5 35.5zM128 615q0 21 15 36t36 15t35.5 -15t14.5 -36t-14.5 -36t-35.5 -15t-36 15t-15 36zM128 728
q0 21 14.5 36t35.5 15t36 -15t15 -36t-15 -36t-36 -15t-35.5 15t-14.5 36z" />
    <glyph glyph-name="numbersign" unicode="#" horiz-adv-x="760" 
d="M-2 277q0 21 14.5 36t35.5 15t36 -15t15 -36t-15 -35.5t-36 -14.5t-35.5 14.5t-14.5 35.5zM-3 504q0 21 15 36t36 15t36 -15t15 -36t-15 -36t-36 -15t-36 15t-15 36zM129 49q0 21 15 35.5t36 14.5t35.5 -14.5t14.5 -35.5t-14.5 -36t-35.5 -15t-36 15t-15 36zM129 162
q0 21 15 36t36 15t35.5 -15t14.5 -36t-14.5 -36t-35.5 -15t-36 15t-15 36zM129 275q0 21 14.5 36t35.5 15t36 -15t15 -36t-15 -35.5t-36 -14.5t-35.5 14.5t-14.5 35.5zM128 388q0 21 15 36t36 15t36 -15t15 -36t-15 -35.5t-36 -14.5t-36 14.5t-15 35.5zM128 502
q0 21 15 35.5t36 14.5t35.5 -14.5t14.5 -35.5t-14.5 -36t-35.5 -15t-36 15t-15 36zM128 615q0 21 15 36t36 15t35.5 -15t14.5 -36t-14.5 -36t-35.5 -15t-36 15t-15 36zM128 728q0 21 14.5 36t35.5 15t36 -15t15 -36t-15 -36t-36 -15t-35.5 15t-14.5 36zM262 278q0 21 15 36
t36 15t36 -15t15 -36t-15 -36t-36 -15t-36 15t-15 36zM262 505q0 21 14.5 35.5t35.5 14.5t36 -14.5t15 -35.5t-15 -36t-36 -15t-35.5 15t-14.5 36zM391 52q0 21 14.5 36t35.5 15t36 -15t15 -36t-15 -36t-36 -15t-35.5 15t-14.5 36zM390 165q0 21 15 36t36 15t36 -15t15 -36
t-15 -35.5t-36 -14.5t-36 14.5t-15 35.5zM390 278q0 21 15 36t36 15t35.5 -15t14.5 -36t-14.5 -35.5t-35.5 -14.5t-36 14.5t-15 35.5zM390 392q0 21 14.5 35.5t35.5 14.5t36 -14.5t15 -35.5t-15 -36t-36 -15t-35.5 15t-14.5 36zM389 505q0 21 15 36t36 15t36 -15t15 -36
t-15 -36t-36 -15t-36 15t-15 36zM389 618q0 21 15 36t36 15t36 -15t15 -36t-15 -36t-36 -15t-36 15t-15 36zM389 731q0 21 15 36t36 15t35.5 -15t14.5 -36t-14.5 -35.5t-35.5 -14.5t-36 14.5t-15 35.5zM522 276q0 21 14.5 36t35.5 15t36 -15t15 -36t-15 -36t-36 -15
t-35.5 15t-14.5 36zM521 503q0 21 15 35.5t36 14.5t36 -14.5t15 -35.5t-15 -36t-36 -15t-36 15t-15 36z" />
    <glyph glyph-name="dollar" unicode="$" horiz-adv-x="749" 
d="M-2 164q0 21 15 36t36 15t35.5 -15t14.5 -36t-14.5 -35.5t-35.5 -14.5t-36 14.5t-15 35.5zM-3 391q0 21 15 35.5t36 14.5t36 -14.5t15 -35.5t-15 -36t-36 -15t-36 15t-15 36zM-3 504q0 21 15 36t36 15t36 -15t15 -36t-15 -36t-36 -15t-36 15t-15 36zM129 162q0 21 15 36
t36 15t35.5 -15t14.5 -36t-14.5 -36t-35.5 -15t-36 15t-15 36zM128 388q0 21 15 36t36 15t36 -15t15 -36t-15 -35.5t-36 -14.5t-36 14.5t-15 35.5zM128 615q0 21 15 36t36 15t35.5 -15t14.5 -36t-14.5 -36t-35.5 -15t-36 15t-15 36zM263 52q0 21 14.5 35.5t35.5 14.5
t36 -14.5t15 -35.5t-15 -36t-36 -15t-35.5 15t-14.5 36zM262 165q0 21 15 36t36 15t36 -15t15 -36t-15 -36t-36 -15t-36 15t-15 36zM262 391q0 21 15 36t36 15t35.5 -15t14.5 -36t-14.5 -35.5t-35.5 -14.5t-36 14.5t-15 35.5zM261 618q0 21 15 35.5t36 14.5t36 -14.5
t15 -35.5t-15 -36t-36 -15t-36 15t-15 36zM261 731q0 21 15 36t36 15t36 -15t15 -36t-15 -36t-36 -15t-36 15t-15 36zM390 165q0 21 15 36t36 15t36 -15t15 -36t-15 -35.5t-36 -14.5t-36 14.5t-15 35.5zM390 392q0 21 14.5 35.5t35.5 14.5t36 -14.5t15 -35.5t-15 -36
t-36 -15t-35.5 15t-14.5 36zM389 618q0 21 15 36t36 15t36 -15t15 -36t-15 -36t-36 -15t-36 15t-15 36zM522 276q0 21 14.5 36t35.5 15t36 -15t15 -36t-15 -36t-36 -15t-35.5 15t-14.5 36zM522 389q0 21 14.5 36t35.5 15t36 -15t15 -36t-15 -35.5t-36 -14.5t-35.5 14.5
t-14.5 35.5zM521 616q0 21 15 35.5t36 14.5t35.5 -14.5t14.5 -35.5t-14.5 -36t-35.5 -15t-36 15t-15 36z" />
    <glyph glyph-name="percent" unicode="%" horiz-adv-x="1023" 
d="M-2 51q0 21 15 36t36 15t36 -15t15 -36t-15 -36t-36 -15t-36 15t-15 36zM129 162q0 21 15 36t36 15t35.5 -15t14.5 -36t-14.5 -36t-35.5 -15t-36 15t-15 36zM262 278q0 21 15 36t36 15t36 -15t15 -36t-15 -36t-36 -15t-36 15t-15 36zM390 392q0 21 14.5 35.5t35.5 14.5
t36 -14.5t15 -35.5t-15 -36t-36 -15t-35.5 15t-14.5 36zM521 503q0 21 15 35.5t36 14.5t36 -14.5t15 -35.5t-15 -36t-36 -15t-36 15t-15 36zM652 616q0 21 14.5 36t35.5 15t36 -15t15 -36t-15 -35.5t-36 -14.5t-35.5 14.5t-14.5 35.5zM702 679zM782 732q0 21 15 36t36 15
t36 -15t15 -36t-15 -35.5t-36 -14.5t-36 14.5t-15 35.5zM-1 549q0 22 22 22q21 0 21 -22q0 -21 -21 -21q-22 0 -22 21zM-1 597q0 21 21 21q22 0 22 -21t-22 -21q-21 0 -21 21zM-1 645q0 21 21 21q22 0 22 -21q0 -22 -22 -22q-21 0 -21 22zM-1 693q0 21 21 21q22 0 22 -21
q0 -22 -22 -22q-21 0 -21 22zM-1 740q0 22 21 22t21 -22q0 -21 -21 -21t-21 21zM54 501q0 21 22 21q21 0 21 -21q0 -22 -21 -22q-22 0 -22 22zM54 787q0 22 21 22q22 0 22 -22q0 -21 -22 -21q-21 0 -21 21zM111 502q0 21 21 21q22 0 22 -21q0 -22 -22 -22q-21 0 -21 22z
M110 788q0 22 22 22q21 0 21 -22q0 -21 -21 -21q-22 0 -22 21zM165 502q0 21 21 21q22 0 22 -21t-22 -21q-21 0 -21 21zM164 789q0 21 21 21q22 0 22 -21q0 -22 -22 -22q-21 0 -21 22zM220 549q0 21 22 21q21 0 21 -21q0 -22 -21 -22q-22 0 -22 22zM220 597q0 21 22 21
q21 0 21 -21q0 -22 -21 -22q-22 0 -22 22zM220 644q0 22 21 22q22 0 22 -22q0 -21 -22 -21q-21 0 -21 21zM220 692q0 21 21 21q22 0 22 -21t-22 -21q-21 0 -21 21zM220 740q0 21 21 21q22 0 22 -21q0 -22 -22 -22q-21 0 -21 22zM629 59q0 22 22 22q21 0 21 -22
q0 -21 -21 -21q-22 0 -22 21zM629 107q0 21 21 21q22 0 22 -21t-22 -21q-21 0 -21 21zM629 155q0 21 21 21q22 0 22 -21q0 -22 -22 -22q-21 0 -21 22zM629 203q0 21 21 21q22 0 22 -21q0 -22 -22 -22q-21 0 -21 22zM629 250q0 22 21 22t21 -22q0 -21 -21 -21t-21 21zM684 11
q0 21 22 21q21 0 21 -21q0 -22 -21 -22q-22 0 -22 22zM684 297q0 22 21 22q22 0 22 -22q0 -21 -22 -21q-21 0 -21 21zM741 12q0 21 21 21q22 0 22 -21q0 -22 -22 -22q-21 0 -21 22zM740 298q0 22 22 22q21 0 21 -22q0 -21 -21 -21q-22 0 -22 21zM795 12q0 21 21 21
q22 0 22 -21t-22 -21q-21 0 -21 21zM794 299q0 21 21 21q22 0 22 -21q0 -22 -22 -22q-21 0 -21 22zM850 59q0 21 22 21q21 0 21 -21q0 -22 -21 -22q-22 0 -22 22zM850 107q0 21 22 21q21 0 21 -21q0 -22 -21 -22q-22 0 -22 22zM850 154q0 22 21 22q22 0 22 -22
q0 -21 -22 -21q-21 0 -21 21zM850 202q0 21 21 21q22 0 22 -21t-22 -21q-21 0 -21 21zM850 250q0 21 21 21q22 0 22 -21q0 -22 -22 -22q-21 0 -21 22z" />
    <glyph glyph-name="ampersand" unicode="&#x26;" horiz-adv-x="738" 
d="M-2 164q0 21 15 36t36 15t35.5 -15t14.5 -36t-14.5 -35.5t-35.5 -14.5t-36 14.5t-15 35.5zM-2 277q0 21 14.5 36t35.5 15t36 -15t15 -36t-15 -35.5t-36 -14.5t-35.5 14.5t-14.5 35.5zM-3 504q0 21 15 36t36 15t36 -15t15 -36t-15 -36t-36 -15t-36 15t-15 36zM-3 617
q0 21 15 36t36 15t35.5 -15t14.5 -36t-14.5 -36t-35.5 -15t-36 15t-15 36zM129 49q0 21 15 35.5t36 14.5t35.5 -14.5t14.5 -35.5t-14.5 -36t-35.5 -15t-36 15t-15 36zM180 111zM128 388q0 21 15 36t36 15t36 -15t15 -36t-15 -35.5t-36 -14.5t-36 14.5t-15 35.5zM179 451z
M128 728q0 21 14.5 36t35.5 15t36 -15t15 -36t-15 -36t-36 -15t-35.5 15t-14.5 36zM263 52q0 21 14.5 35.5t35.5 14.5t36 -14.5t15 -35.5t-15 -36t-36 -15t-35.5 15t-14.5 36zM262 391q0 21 15 36t36 15t35.5 -15t14.5 -36t-14.5 -35.5t-35.5 -14.5t-36 14.5t-15 35.5z
M312 668zM261 731q0 21 15 36t36 15t36 -15t15 -36t-15 -36t-36 -15t-36 15t-15 36zM391 52q0 21 14.5 36t35.5 15t36 -15t15 -36t-15 -36t-36 -15t-35.5 15t-14.5 36zM440 669zM389 731q0 21 15 36t36 15t35.5 -15t14.5 -36t-14.5 -35.5t-35.5 -14.5t-36 14.5t-15 35.5z
M522 50q0 21 15 35.5t36 14.5t36 -14.5t15 -35.5t-15 -36t-36 -15t-36 15t-15 36zM522 163q0 21 15 36t36 15t35.5 -15t14.5 -36t-14.5 -36t-35.5 -15t-36 15t-15 36zM522 276q0 21 14.5 36t35.5 15t36 -15t15 -36t-15 -36t-36 -15t-35.5 15t-14.5 36zM521 729q0 21 14.5 36
t35.5 15t36 -15t15 -36t-15 -36t-36 -15t-35.5 15t-14.5 36z" />
    <glyph glyph-name="quotesingle" unicode="'" horiz-adv-x="255" 
d="M-3 617q0 21 15 36t36 15t35.5 -15t14.5 -36t-14.5 -36t-35.5 -15t-36 15t-15 36zM-3 730q0 21 14.5 36t35.5 15t36 -15t15 -36t-15 -35.5t-36 -14.5t-35.5 14.5t-14.5 35.5z" />
    <glyph glyph-name="parenleft" unicode="(" horiz-adv-x="372" 
d="M-2 277q0 21 14.5 36t35.5 15t36 -15t15 -36t-15 -35.5t-36 -14.5t-35.5 14.5t-14.5 35.5zM-3 391q0 21 15 35.5t36 14.5t36 -14.5t15 -35.5t-15 -36t-36 -15t-36 15t-15 36zM-3 504q0 21 15 36t36 15t36 -15t15 -36t-15 -36t-36 -15t-36 15t-15 36zM46 97q0 9 2 17
q-21 0 -35.5 14.5t-14.5 35.5t15 36t36 15t35.5 -15t14.5 -36q0 -8 -2 -16q21 0 35.5 -15t14.5 -36q0 -5 -1 -10q14 12 34 12q21 0 35.5 -14.5t14.5 -35.5t-14.5 -36t-35.5 -15t-36 15t-15 36q0 5 1 10q-14 -13 -34 -13q-21 0 -35.5 15t-14.5 36zM52 678q0 21 15 35.5
t36 14.5q13 0 25 -7v7q0 21 14.5 36t35.5 15t36 -15t15 -36t-15 -36t-36 -15q-13 0 -25 7v-6q0 -21 -14.5 -36t-35.5 -15h-6q1 -5 1 -10q0 -21 -14.5 -36t-35.5 -15t-36 15t-15 36t15 36t36 15h5q-1 5 -1 10z" />
    <glyph glyph-name="parenright" unicode=")" horiz-adv-x="376" 
d="M230 278q0 21 -15 35.5t-36 14.5t-35.5 -14.5t-14.5 -35.5t14.5 -36t35.5 -15t36 15t15 36zM230 391q0 21 -15 36t-36 15t-35.5 -15t-14.5 -36t14.5 -36t35.5 -15t36 15t15 36zM230 504q0 21 -14.5 36t-35.5 15t-36 -15t-15 -36t15 -36t36 -15t35.5 15t14.5 36zM182 97
q0 9 -3 17q21 0 36 15t15 36t-15 35.5t-36 14.5t-36 -14.5t-15 -35.5q0 -9 3 -17q-21 0 -35.5 -15t-14.5 -36q0 -5 1 -10q-15 13 -34 13q-21 0 -36 -15t-15 -36t15 -36t36 -15t36 15t15 36q0 5 -2 11q15 -13 34 -13q21 0 36 14.5t15 35.5zM176 678q0 21 -15 36t-36 15
q-14 0 -25 -7v6q0 21 -15 36t-36 15t-35.5 -15t-14.5 -36t14.5 -35.5t35.5 -14.5q14 0 26 6q-1 -3 -1 -6q0 -21 15 -36t36 -15h5q-1 -5 -1 -10q0 -21 15 -35.5t36 -14.5t36 14.5t15 35.5t-15 36t-36 15h-5q1 5 1 10z" />
    <glyph glyph-name="asterisk" unicode="*" horiz-adv-x="504" 
d="M-1 640q0 28 28 28q29 0 29 -28q0 -29 -29 -29q-28 0 -28 29zM72 638q0 29 29 29q28 0 28 -29q0 -28 -28 -28q-29 0 -29 28zM148 513q0 28 28 28q29 0 29 -28q0 -29 -29 -29q-28 0 -28 29zM148 576q0 29 28 29q29 0 29 -29q0 -28 -29 -28q-28 0 -28 28zM147 640
q0 29 29 29q28 0 28 -29q0 -28 -28 -28q-29 0 -29 28zM147 704q0 28 29 28q28 0 28 -28q0 -29 -28 -29q-29 0 -29 29zM147 767q0 29 29 29q28 0 28 -29q0 -28 -28 -28q-29 0 -29 28zM219 640q0 29 29 29q28 0 28 -29q0 -28 -28 -28q-29 0 -29 28zM293 639q0 29 29 29
q28 0 28 -29q0 -28 -28 -28q-29 0 -29 28zM220 717q0 28 29 28q28 0 28 -28q0 -29 -28 -29q-29 0 -29 29zM68 571q0 28 29 28q28 0 28 -28q0 -29 -28 -29q-29 0 -29 29zM260 751q0 28 28 28q29 0 29 -28q0 -29 -29 -29q-28 0 -28 29zM35 531q0 29 28 29q29 0 29 -29
q0 -28 -29 -28q-28 0 -28 28zM215 576q0 29 28 29q29 0 29 -29q0 -28 -29 -28q-28 0 -28 28zM248 537q0 28 29 28q28 0 28 -28q0 -29 -28 -29q-29 0 -29 29zM46 745q0 28 28 28q29 0 29 -28q0 -29 -29 -29q-28 0 -28 29zM80 706q0 28 28 28q29 0 29 -28q0 -29 -29 -29
q-28 0 -28 29z" />
    <glyph glyph-name="plus" unicode="+" horiz-adv-x="742" 
d="M-3 391q0 21 15 35.5t36 14.5t36 -14.5t15 -35.5t-15 -36t-36 -15t-36 15t-15 36zM128 388q0 21 15 36t36 15t36 -15t15 -36t-15 -35.5t-36 -14.5t-36 14.5t-15 35.5zM262 165q0 21 15 36t36 15t36 -15t15 -36t-15 -36t-36 -15t-36 15t-15 36zM262 278q0 21 15 36t36 15
t36 -15t15 -36t-15 -36t-36 -15t-36 15t-15 36zM262 391q0 21 15 36t36 15t35.5 -15t14.5 -36t-14.5 -35.5t-35.5 -14.5t-36 14.5t-15 35.5zM262 505q0 21 14.5 35.5t35.5 14.5t36 -14.5t15 -35.5t-15 -36t-36 -15t-35.5 15t-14.5 36zM261 618q0 21 15 35.5t36 14.5
t36 -14.5t15 -35.5t-15 -36t-36 -15t-36 15t-15 36zM390 392q0 21 14.5 35.5t35.5 14.5t36 -14.5t15 -35.5t-15 -36t-36 -15t-35.5 15t-14.5 36zM522 389q0 21 14.5 36t35.5 15t36 -15t15 -36t-15 -35.5t-36 -14.5t-35.5 14.5t-14.5 35.5z" />
    <glyph glyph-name="comma" unicode="," horiz-adv-x="261" 
d="M-2 -59q0 21 15 36t36 15t36 -15t15 -36t-15 -36t-36 -15t-36 15t-15 36zM-2 54q0 21 15 36t36 15t35.5 -15t14.5 -36t-14.5 -35.5t-35.5 -14.5t-36 14.5t-15 35.5zM48 117z" />
    <glyph glyph-name="hyphen" unicode="-" horiz-adv-x="531" 
d="M-3 391q0 21 15 35.5t36 14.5t36 -14.5t15 -35.5t-15 -36t-36 -15t-36 15t-15 36zM128 388q0 21 15 36t36 15t36 -15t15 -36t-15 -35.5t-36 -14.5t-36 14.5t-15 35.5zM262 391q0 21 15 36t36 15t35.5 -15t14.5 -36t-14.5 -35.5t-35.5 -14.5t-36 14.5t-15 35.5z" />
    <glyph glyph-name="hyphen" unicode="&#x2010;" horiz-adv-x="531" 
d="M-3 391q0 21 15 35.5t36 14.5t36 -14.5t15 -35.5t-15 -36t-36 -15t-36 15t-15 36zM128 388q0 21 15 36t36 15t36 -15t15 -36t-15 -35.5t-36 -14.5t-36 14.5t-15 35.5zM262 391q0 21 15 36t36 15t35.5 -15t14.5 -36t-14.5 -35.5t-35.5 -14.5t-36 14.5t-15 35.5z" />
    <glyph glyph-name="period" unicode="." horiz-adv-x="270" 
d="M-2 51q0 21 15 36t36 15t36 -15t15 -36t-15 -36t-36 -15t-36 15t-15 36z" />
    <glyph glyph-name="slash" unicode="/" horiz-adv-x="958" 
d="M-2 51q0 21 15 36t36 15t36 -15t15 -36t-15 -36t-36 -15t-36 15t-15 36zM129 162q0 21 15 36t36 15t35.5 -15t14.5 -36t-14.5 -36t-35.5 -15t-36 15t-15 36zM262 278q0 21 15 36t36 15t36 -15t15 -36t-15 -36t-36 -15t-36 15t-15 36zM390 392q0 21 14.5 35.5t35.5 14.5
t36 -14.5t15 -35.5t-15 -36t-36 -15t-35.5 15t-14.5 36zM521 503q0 21 15 35.5t36 14.5t36 -14.5t15 -35.5t-15 -36t-36 -15t-36 15t-15 36zM652 616q0 21 14.5 36t35.5 15t36 -15t15 -36t-15 -35.5t-36 -14.5t-35.5 14.5t-14.5 35.5zM702 679zM782 732q0 21 15 36t36 15
t36 -15t15 -36t-15 -35.5t-36 -14.5t-36 14.5t-15 35.5z" />
    <glyph glyph-name="zero" unicode="0" horiz-adv-x="774" 
d="M-2 164q0 21 15 36t36 15t35.5 -15t14.5 -36t-14.5 -35.5t-35.5 -14.5t-36 14.5t-15 35.5zM-2 277q0 21 14.5 36t35.5 15t36 -15t15 -36t-15 -35.5t-36 -14.5t-35.5 14.5t-14.5 35.5zM-3 391q0 21 15 35.5t36 14.5t36 -14.5t15 -35.5t-15 -36t-36 -15t-36 15t-15 36z
M-3 504q0 21 15 36t36 15t36 -15t15 -36t-15 -36t-36 -15t-36 15t-15 36zM-3 617q0 21 15 36t36 15t35.5 -15t14.5 -36t-14.5 -36t-35.5 -15t-36 15t-15 36zM129 49q0 21 15 35.5t36 14.5t35.5 -14.5t14.5 -35.5t-14.5 -36t-35.5 -15t-36 15t-15 36zM128 728q0 21 14.5 36
t35.5 15t36 -15t15 -36t-15 -36t-36 -15t-35.5 15t-14.5 36zM263 52q0 21 14.5 35.5t35.5 14.5t36 -14.5t15 -35.5t-15 -36t-36 -15t-35.5 15t-14.5 36zM261 731q0 21 15 36t36 15t36 -15t15 -36t-15 -36t-36 -15t-36 15t-15 36zM391 52q0 21 14.5 36t35.5 15t36 -15t15 -36
t-15 -36t-36 -15t-35.5 15t-14.5 36zM389 731q0 21 15 36t36 15t35.5 -15t14.5 -36t-14.5 -35.5t-35.5 -14.5t-36 14.5t-15 35.5zM522 163q0 21 15 36t36 15t35.5 -15t14.5 -36t-14.5 -36t-35.5 -15t-36 15t-15 36zM522 276q0 21 14.5 36t35.5 15t36 -15t15 -36t-15 -36
t-36 -15t-35.5 15t-14.5 36zM522 389q0 21 14.5 36t35.5 15t36 -15t15 -36t-15 -35.5t-36 -14.5t-35.5 14.5t-14.5 35.5zM521 503q0 21 15 35.5t36 14.5t36 -14.5t15 -35.5t-15 -36t-36 -15t-36 15t-15 36zM521 616q0 21 15 35.5t36 14.5t35.5 -14.5t14.5 -35.5t-14.5 -36
t-35.5 -15t-36 15t-15 36z" />
    <glyph glyph-name="one" unicode="1" horiz-adv-x="380" 
d="M-3 730q0 21 14.5 36t35.5 15t36 -15t15 -36t-15 -35.5t-36 -14.5t-35.5 14.5t-14.5 35.5zM129 49q0 21 15 35.5t36 14.5t35.5 -14.5t14.5 -35.5t-14.5 -36t-35.5 -15t-36 15t-15 36zM129 162q0 21 15 36t36 15t35.5 -15t14.5 -36t-14.5 -36t-35.5 -15t-36 15t-15 36z
M129 275q0 21 14.5 36t35.5 15t36 -15t15 -36t-15 -35.5t-36 -14.5t-35.5 14.5t-14.5 35.5zM128 388q0 21 15 36t36 15t36 -15t15 -36t-15 -35.5t-36 -14.5t-36 14.5t-15 35.5zM128 502q0 21 15 35.5t36 14.5t35.5 -14.5t14.5 -35.5t-14.5 -36t-35.5 -15t-36 15t-15 36z
M128 615q0 21 15 36t36 15t35.5 -15t14.5 -36t-14.5 -36t-35.5 -15t-36 15t-15 36zM128 728q0 21 14.5 36t35.5 15t36 -15t15 -36t-15 -36t-36 -15t-35.5 15t-14.5 36z" />
    <glyph glyph-name="two" unicode="2" horiz-adv-x="737" 
d="M-2 51q0 21 15 36t36 15t36 -15t15 -36t-15 -36t-36 -15t-36 15t-15 36zM-2 164q0 21 15 36t36 15t35.5 -15t14.5 -36t-14.5 -35.5t-35.5 -14.5t-36 14.5t-15 35.5zM-2 277q0 21 14.5 36t35.5 15t36 -15t15 -36t-15 -35.5t-36 -14.5t-35.5 14.5t-14.5 35.5zM-3 617
q0 21 15 36t36 15t35.5 -15t14.5 -36t-14.5 -36t-35.5 -15t-36 15t-15 36zM129 49q0 21 15 35.5t36 14.5t35.5 -14.5t14.5 -35.5t-14.5 -36t-35.5 -15t-36 15t-15 36zM128 388q0 21 15 36t36 15t36 -15t15 -36t-15 -35.5t-36 -14.5t-36 14.5t-15 35.5zM128 728q0 21 14.5 36
t35.5 15t36 -15t15 -36t-15 -36t-36 -15t-35.5 15t-14.5 36zM263 52q0 21 14.5 35.5t35.5 14.5t36 -14.5t15 -35.5t-15 -36t-36 -15t-35.5 15t-14.5 36zM262 391q0 21 15 36t36 15t35.5 -15t14.5 -36t-14.5 -35.5t-35.5 -14.5t-36 14.5t-15 35.5zM261 731q0 21 15 36t36 15
t36 -15t15 -36t-15 -36t-36 -15t-36 15t-15 36zM391 52q0 21 14.5 36t35.5 15t36 -15t15 -36t-15 -36t-36 -15t-35.5 15t-14.5 36zM390 392q0 21 14.5 35.5t35.5 14.5t36 -14.5t15 -35.5t-15 -36t-36 -15t-35.5 15t-14.5 36zM389 731q0 21 15 36t36 15t35.5 -15t14.5 -36
t-14.5 -35.5t-35.5 -14.5t-36 14.5t-15 35.5zM522 50q0 21 15 35.5t36 14.5t36 -14.5t15 -35.5t-15 -36t-36 -15t-36 15t-15 36zM521 503q0 21 15 35.5t36 14.5t36 -14.5t15 -35.5t-15 -36t-36 -15t-36 15t-15 36zM521 616q0 21 15 35.5t36 14.5t35.5 -14.5t14.5 -35.5
t-14.5 -36t-35.5 -15t-36 15t-15 36z" />
    <glyph glyph-name="three" unicode="3" horiz-adv-x="767" 
d="M-2 164q0 21 15 36t36 15t35.5 -15t14.5 -36t-14.5 -35.5t-35.5 -14.5t-36 14.5t-15 35.5zM-3 617q0 21 15 36t36 15t35.5 -15t14.5 -36t-14.5 -36t-35.5 -15t-36 15t-15 36zM129 49q0 21 15 35.5t36 14.5t35.5 -14.5t14.5 -35.5t-14.5 -36t-35.5 -15t-36 15t-15 36z
M128 388q0 21 15 36t36 15t36 -15t15 -36t-15 -35.5t-36 -14.5t-36 14.5t-15 35.5zM128 728q0 21 14.5 36t35.5 15t36 -15t15 -36t-15 -36t-36 -15t-35.5 15t-14.5 36zM263 52q0 21 14.5 35.5t35.5 14.5t36 -14.5t15 -35.5t-15 -36t-36 -15t-35.5 15t-14.5 36zM262 391
q0 21 15 36t36 15t35.5 -15t14.5 -36t-14.5 -35.5t-35.5 -14.5t-36 14.5t-15 35.5zM261 731q0 21 15 36t36 15t36 -15t15 -36t-15 -36t-36 -15t-36 15t-15 36zM391 52q0 21 14.5 36t35.5 15t36 -15t15 -36t-15 -36t-36 -15t-35.5 15t-14.5 36zM390 392q0 21 14.5 35.5
t35.5 14.5t36 -14.5t15 -35.5t-15 -36t-36 -15t-35.5 15t-14.5 36zM389 731q0 21 15 36t36 15t35.5 -15t14.5 -36t-14.5 -35.5t-35.5 -14.5t-36 14.5t-15 35.5zM522 163q0 21 15 36t36 15t35.5 -15t14.5 -36t-14.5 -36t-35.5 -15t-36 15t-15 36zM522 276q0 21 14.5 36
t35.5 15t36 -15t15 -36t-15 -36t-36 -15t-35.5 15t-14.5 36zM521 503q0 21 15 35.5t36 14.5t36 -14.5t15 -35.5t-15 -36t-36 -15t-36 15t-15 36zM521 616q0 21 15 35.5t36 14.5t35.5 -14.5t14.5 -35.5t-14.5 -36t-35.5 -15t-36 15t-15 36z" />
    <glyph glyph-name="four" unicode="4" horiz-adv-x="774" 
d="M-3 391q0 21 15 35.5t36 14.5t36 -14.5t15 -35.5t-15 -36t-36 -15t-36 15t-15 36zM-3 504q0 21 15 36t36 15t36 -15t15 -36t-15 -36t-36 -15t-36 15t-15 36zM-3 617q0 21 15 36t36 15t35.5 -15t14.5 -36t-14.5 -36t-35.5 -15t-36 15t-15 36zM-3 730q0 21 14.5 36t35.5 15
t36 -15t15 -36t-15 -35.5t-36 -14.5t-35.5 14.5t-14.5 35.5zM128 388q0 21 15 36t36 15t36 -15t15 -36t-15 -35.5t-36 -14.5t-36 14.5t-15 35.5zM262 391q0 21 15 36t36 15t35.5 -15t14.5 -36t-14.5 -35.5t-35.5 -14.5t-36 14.5t-15 35.5zM390 392q0 21 14.5 35.5t35.5 14.5
t36 -14.5t15 -35.5t-15 -36t-36 -15t-35.5 15t-14.5 36zM522 50q0 21 15 35.5t36 14.5t36 -14.5t15 -35.5t-15 -36t-36 -15t-36 15t-15 36zM522 163q0 21 15 36t36 15t35.5 -15t14.5 -36t-14.5 -36t-35.5 -15t-36 15t-15 36zM522 276q0 21 14.5 36t35.5 15t36 -15t15 -36
t-15 -36t-36 -15t-35.5 15t-14.5 36zM522 389q0 21 14.5 36t35.5 15t36 -15t15 -36t-15 -35.5t-36 -14.5t-35.5 14.5t-14.5 35.5zM521 503q0 21 15 35.5t36 14.5t36 -14.5t15 -35.5t-15 -36t-36 -15t-36 15t-15 36zM521 616q0 21 15 35.5t36 14.5t35.5 -14.5t14.5 -35.5
t-14.5 -36t-35.5 -15t-36 15t-15 36zM521 729q0 21 14.5 36t35.5 15t36 -15t15 -36t-15 -36t-36 -15t-35.5 15t-14.5 36z" />
    <glyph glyph-name="five" unicode="5" horiz-adv-x="735" 
d="M-2 164q0 21 15 36t36 15t35.5 -15t14.5 -36t-14.5 -35.5t-35.5 -14.5t-36 14.5t-15 35.5zM-3 391q0 21 15 35.5t36 14.5t36 -14.5t15 -35.5t-15 -36t-36 -15t-36 15t-15 36zM-3 504q0 21 15 36t36 15t36 -15t15 -36t-15 -36t-36 -15t-36 15t-15 36zM-3 617q0 21 15 36
t36 15t35.5 -15t14.5 -36t-14.5 -36t-35.5 -15t-36 15t-15 36zM-3 730q0 21 14.5 36t35.5 15t36 -15t15 -36t-15 -35.5t-36 -14.5t-35.5 14.5t-14.5 35.5zM129 49q0 21 15 35.5t36 14.5t35.5 -14.5t14.5 -35.5t-14.5 -36t-35.5 -15t-36 15t-15 36zM128 388q0 21 15 36t36 15
t36 -15t15 -36t-15 -35.5t-36 -14.5t-36 14.5t-15 35.5zM128 728q0 21 14.5 36t35.5 15t36 -15t15 -36t-15 -36t-36 -15t-35.5 15t-14.5 36zM263 52q0 21 14.5 35.5t35.5 14.5t36 -14.5t15 -35.5t-15 -36t-36 -15t-35.5 15t-14.5 36zM262 391q0 21 15 36t36 15t35.5 -15
t14.5 -36t-14.5 -35.5t-35.5 -14.5t-36 14.5t-15 35.5zM261 731q0 21 15 36t36 15t36 -15t15 -36t-15 -36t-36 -15t-36 15t-15 36zM391 52q0 21 14.5 36t35.5 15t36 -15t15 -36t-15 -36t-36 -15t-35.5 15t-14.5 36zM390 392q0 21 14.5 35.5t35.5 14.5t36 -14.5t15 -35.5
t-15 -36t-36 -15t-35.5 15t-14.5 36zM389 731q0 21 15 36t36 15t35.5 -15t14.5 -36t-14.5 -35.5t-35.5 -14.5t-36 14.5t-15 35.5zM522 163q0 21 15 36t36 15t35.5 -15t14.5 -36t-14.5 -36t-35.5 -15t-36 15t-15 36zM522 276q0 21 14.5 36t35.5 15t36 -15t15 -36t-15 -36
t-36 -15t-35.5 15t-14.5 36zM521 729q0 21 14.5 36t35.5 15t36 -15t15 -36t-15 -36t-36 -15t-35.5 15t-14.5 36z" />
    <glyph glyph-name="six" unicode="6" horiz-adv-x="759" 
d="M-2 164q0 21 15 36t36 15t35.5 -15t14.5 -36t-14.5 -35.5t-35.5 -14.5t-36 14.5t-15 35.5zM-2 277q0 21 14.5 36t35.5 15t36 -15t15 -36t-15 -35.5t-36 -14.5t-35.5 14.5t-14.5 35.5zM-3 391q0 21 15 35.5t36 14.5t36 -14.5t15 -35.5t-15 -36t-36 -15t-36 15t-15 36z
M-3 504q0 21 15 36t36 15t36 -15t15 -36t-15 -36t-36 -15t-36 15t-15 36zM-3 617q0 21 15 36t36 15t35.5 -15t14.5 -36t-14.5 -36t-35.5 -15t-36 15t-15 36zM129 49q0 21 15 35.5t36 14.5t35.5 -14.5t14.5 -35.5t-14.5 -36t-35.5 -15t-36 15t-15 36zM128 388q0 21 15 36
t36 15t36 -15t15 -36t-15 -35.5t-36 -14.5t-36 14.5t-15 35.5zM128 728q0 21 14.5 36t35.5 15t36 -15t15 -36t-15 -36t-36 -15t-35.5 15t-14.5 36zM263 52q0 21 14.5 35.5t35.5 14.5t36 -14.5t15 -35.5t-15 -36t-36 -15t-35.5 15t-14.5 36zM262 391q0 21 15 36t36 15
t35.5 -15t14.5 -36t-14.5 -35.5t-35.5 -14.5t-36 14.5t-15 35.5zM261 731q0 21 15 36t36 15t36 -15t15 -36t-15 -36t-36 -15t-36 15t-15 36zM391 52q0 21 14.5 36t35.5 15t36 -15t15 -36t-15 -36t-36 -15t-35.5 15t-14.5 36zM390 392q0 21 14.5 35.5t35.5 14.5t36 -14.5
t15 -35.5t-15 -36t-36 -15t-35.5 15t-14.5 36zM389 731q0 21 15 36t36 15t35.5 -15t14.5 -36t-14.5 -35.5t-35.5 -14.5t-36 14.5t-15 35.5zM522 163q0 21 15 36t36 15t35.5 -15t14.5 -36t-14.5 -36t-35.5 -15t-36 15t-15 36zM522 276q0 21 14.5 36t35.5 15t36 -15t15 -36
t-15 -36t-36 -15t-35.5 15t-14.5 36zM521 616q0 21 15 35.5t36 14.5t35.5 -14.5t14.5 -35.5t-14.5 -36t-35.5 -15t-36 15t-15 36z" />
    <glyph glyph-name="seven" unicode="7" horiz-adv-x="728" 
d="M-3 730q0 21 14.5 36t35.5 15t36 -15t15 -36t-15 -35.5t-36 -14.5t-35.5 14.5t-14.5 35.5zM129 49q0 21 15 35.5t36 14.5t35.5 -14.5t14.5 -35.5t-14.5 -36t-35.5 -15t-36 15t-15 36zM129 162q0 21 15 36t36 15t35.5 -15t14.5 -36t-14.5 -36t-35.5 -15t-36 15t-15 36z
M129 275q0 21 14.5 36t35.5 15t36 -15t15 -36t-15 -35.5t-36 -14.5t-35.5 14.5t-14.5 35.5zM128 728q0 21 14.5 36t35.5 15t36 -15t15 -36t-15 -36t-36 -15t-35.5 15t-14.5 36zM262 391q0 21 15 36t36 15t35.5 -15t14.5 -36t-14.5 -35.5t-35.5 -14.5t-36 14.5t-15 35.5z
M261 731q0 21 15 36t36 15t36 -15t15 -36t-15 -36t-36 -15t-36 15t-15 36zM389 505q0 21 15 36t36 15t36 -15t15 -36t-15 -36t-36 -15t-36 15t-15 36zM389 731q0 21 15 36t36 15t35.5 -15t14.5 -36t-14.5 -35.5t-35.5 -14.5t-36 14.5t-15 35.5zM521 616q0 21 15 35.5
t36 14.5t35.5 -14.5t14.5 -35.5t-14.5 -36t-35.5 -15t-36 15t-15 36zM521 729q0 21 14.5 36t35.5 15t36 -15t15 -36t-15 -36t-36 -15t-35.5 15t-14.5 36z" />
    <glyph glyph-name="eight" unicode="8" horiz-adv-x="767" 
d="M-2 164q0 21 15 36t36 15t35.5 -15t14.5 -36t-14.5 -35.5t-35.5 -14.5t-36 14.5t-15 35.5zM-2 277q0 21 14.5 36t35.5 15t36 -15t15 -36t-15 -35.5t-36 -14.5t-35.5 14.5t-14.5 35.5zM-3 504q0 21 15 36t36 15t36 -15t15 -36t-15 -36t-36 -15t-36 15t-15 36zM-3 617
q0 21 15 36t36 15t35.5 -15t14.5 -36t-14.5 -36t-35.5 -15t-36 15t-15 36zM129 49q0 21 15 35.5t36 14.5t35.5 -14.5t14.5 -35.5t-14.5 -36t-35.5 -15t-36 15t-15 36zM128 388q0 21 15 36t36 15t36 -15t15 -36t-15 -35.5t-36 -14.5t-36 14.5t-15 35.5zM128 728q0 21 14.5 36
t35.5 15t36 -15t15 -36t-15 -36t-36 -15t-35.5 15t-14.5 36zM263 52q0 21 14.5 35.5t35.5 14.5t36 -14.5t15 -35.5t-15 -36t-36 -15t-35.5 15t-14.5 36zM262 391q0 21 15 36t36 15t35.5 -15t14.5 -36t-14.5 -35.5t-35.5 -14.5t-36 14.5t-15 35.5zM261 731q0 21 15 36t36 15
t36 -15t15 -36t-15 -36t-36 -15t-36 15t-15 36zM391 52q0 21 14.5 36t35.5 15t36 -15t15 -36t-15 -36t-36 -15t-35.5 15t-14.5 36zM390 392q0 21 14.5 35.5t35.5 14.5t36 -14.5t15 -35.5t-15 -36t-36 -15t-35.5 15t-14.5 36zM389 731q0 21 15 36t36 15t35.5 -15t14.5 -36
t-14.5 -35.5t-35.5 -14.5t-36 14.5t-15 35.5zM522 163q0 21 15 36t36 15t35.5 -15t14.5 -36t-14.5 -36t-35.5 -15t-36 15t-15 36zM522 276q0 21 14.5 36t35.5 15t36 -15t15 -36t-15 -36t-36 -15t-35.5 15t-14.5 36zM521 503q0 21 15 35.5t36 14.5t36 -14.5t15 -35.5t-15 -36
t-36 -15t-36 15t-15 36zM521 616q0 21 15 35.5t36 14.5t35.5 -14.5t14.5 -35.5t-14.5 -36t-35.5 -15t-36 15t-15 36z" />
    <glyph glyph-name="nine" unicode="9" horiz-adv-x="774" 
d="M-2 164q0 21 15 36t36 15t35.5 -15t14.5 -36t-14.5 -35.5t-35.5 -14.5t-36 14.5t-15 35.5zM-3 504q0 21 15 36t36 15t36 -15t15 -36t-15 -36t-36 -15t-36 15t-15 36zM-3 617q0 21 15 36t36 15t35.5 -15t14.5 -36t-14.5 -36t-35.5 -15t-36 15t-15 36zM129 49q0 21 15 35.5
t36 14.5t35.5 -14.5t14.5 -35.5t-14.5 -36t-35.5 -15t-36 15t-15 36zM128 388q0 21 15 36t36 15t36 -15t15 -36t-15 -35.5t-36 -14.5t-36 14.5t-15 35.5zM128 728q0 21 14.5 36t35.5 15t36 -15t15 -36t-15 -36t-36 -15t-35.5 15t-14.5 36zM263 52q0 21 14.5 35.5t35.5 14.5
t36 -14.5t15 -35.5t-15 -36t-36 -15t-35.5 15t-14.5 36zM262 391q0 21 15 36t36 15t35.5 -15t14.5 -36t-14.5 -35.5t-35.5 -14.5t-36 14.5t-15 35.5zM261 731q0 21 15 36t36 15t36 -15t15 -36t-15 -36t-36 -15t-36 15t-15 36zM391 52q0 21 14.5 36t35.5 15t36 -15t15 -36
t-15 -36t-36 -15t-35.5 15t-14.5 36zM390 392q0 21 14.5 35.5t35.5 14.5t36 -14.5t15 -35.5t-15 -36t-36 -15t-35.5 15t-14.5 36zM389 731q0 21 15 36t36 15t35.5 -15t14.5 -36t-14.5 -35.5t-35.5 -14.5t-36 14.5t-15 35.5zM522 163q0 21 15 36t36 15t35.5 -15t14.5 -36
t-14.5 -36t-35.5 -15t-36 15t-15 36zM522 276q0 21 14.5 36t35.5 15t36 -15t15 -36t-15 -36t-36 -15t-35.5 15t-14.5 36zM522 389q0 21 14.5 36t35.5 15t36 -15t15 -36t-15 -35.5t-36 -14.5t-35.5 14.5t-14.5 35.5zM521 503q0 21 15 35.5t36 14.5t36 -14.5t15 -35.5t-15 -36
t-36 -15t-36 15t-15 36zM521 616q0 21 15 35.5t36 14.5t35.5 -14.5t14.5 -35.5t-14.5 -36t-35.5 -15t-36 15t-15 36z" />
    <glyph glyph-name="colon" unicode=":" horiz-adv-x="254" 
d="M-2 51q0 21 15 36t36 15t36 -15t15 -36t-15 -36t-36 -15t-36 15t-15 36zM-3 391q0 21 15 35.5t36 14.5t36 -14.5t15 -35.5t-15 -36t-36 -15t-36 15t-15 36z" />
    <glyph glyph-name="semicolon" unicode=";" horiz-adv-x="253" 
d="M-2 51q0 21 15 36t36 15t36 -15t15 -36t-15 -36t-36 -15t-36 15t-15 36zM-3 391q0 21 15 35.5t36 14.5t36 -14.5t15 -35.5t-15 -36t-36 -15t-36 15t-15 36zM-2 -77q0 21 15 36t36 15t36 -15t15 -36t-15 -36t-36 -15t-36 15t-15 36z" />
    <glyph glyph-name="equal" unicode="=" horiz-adv-x="740" 
d="M-2 277q0 21 14.5 36t35.5 15t36 -15t15 -36t-15 -35.5t-36 -14.5t-35.5 14.5t-14.5 35.5zM-3 504q0 21 15 36t36 15t36 -15t15 -36t-15 -36t-36 -15t-36 15t-15 36zM129 275q0 21 14.5 36t35.5 15t36 -15t15 -36t-15 -35.5t-36 -14.5t-35.5 14.5t-14.5 35.5zM128 502
q0 21 15 35.5t36 14.5t35.5 -14.5t14.5 -35.5t-14.5 -36t-35.5 -15t-36 15t-15 36zM262 278q0 21 15 36t36 15t36 -15t15 -36t-15 -36t-36 -15t-36 15t-15 36zM262 505q0 21 14.5 35.5t35.5 14.5t36 -14.5t15 -35.5t-15 -36t-36 -15t-35.5 15t-14.5 36zM390 278q0 21 15 36
t36 15t35.5 -15t14.5 -36t-14.5 -35.5t-35.5 -14.5t-36 14.5t-15 35.5zM389 505q0 21 15 36t36 15t36 -15t15 -36t-15 -36t-36 -15t-36 15t-15 36zM522 276q0 21 14.5 36t35.5 15t36 -15t15 -36t-15 -36t-36 -15t-35.5 15t-14.5 36zM521 503q0 21 15 35.5t36 14.5t36 -14.5
t15 -35.5t-15 -36t-36 -15t-36 15t-15 36z" />
    <glyph glyph-name="question" unicode="?" horiz-adv-x="740" 
d="M-3 617q0 21 15 36t36 15t35.5 -15t14.5 -36t-14.5 -36t-35.5 -15t-36 15t-15 36zM128 728q0 21 14.5 36t35.5 15t36 -15t15 -36t-15 -36t-36 -15t-35.5 15t-14.5 36zM263 52q0 21 14.5 35.5t35.5 14.5t36 -14.5t15 -35.5t-15 -36t-36 -15t-35.5 15t-14.5 36zM262 278
q0 21 15 36t36 15t36 -15t15 -36t-15 -36t-36 -15t-36 15t-15 36zM313 341zM312 668zM261 731q0 21 15 36t36 15t36 -15t15 -36t-15 -36t-36 -15t-36 15t-15 36zM391 52zM390 392q0 21 14.5 35.5t35.5 14.5t36 -14.5t15 -35.5t-15 -36t-36 -15t-35.5 15t-14.5 36zM440 669z
M389 731q0 21 15 36t36 15t35.5 -15t14.5 -36t-14.5 -35.5t-35.5 -14.5t-36 14.5t-15 35.5zM521 503q0 21 15 35.5t36 14.5t36 -14.5t15 -35.5t-15 -36t-36 -15t-36 15t-15 36zM521 616q0 21 15 35.5t36 14.5t35.5 -14.5t14.5 -35.5t-14.5 -36t-35.5 -15t-36 15t-15 36z" />
    <glyph glyph-name="at" unicode="@" horiz-adv-x="1021" 
d="M-2 51q0 21 15 36t36 15t36 -15t15 -36t-15 -36t-36 -15t-36 15t-15 36zM-2 164q0 21 15 36t36 15t35.5 -15t14.5 -36t-14.5 -35.5t-35.5 -14.5t-36 14.5t-15 35.5zM-2 277q0 21 14.5 36t35.5 15t36 -15t15 -36t-15 -35.5t-36 -14.5t-35.5 14.5t-14.5 35.5zM-3 391
q0 21 15 35.5t36 14.5t36 -14.5t15 -35.5t-15 -36t-36 -15t-36 15t-15 36zM-3 504q0 21 15 36t36 15t36 -15t15 -36t-15 -36t-36 -15t-36 15t-15 36zM-3 617q0 21 15 36t36 15t35.5 -15t14.5 -36t-14.5 -36t-35.5 -15t-36 15t-15 36zM129 -21q0 21 15 35.5t36 14.5
t35.5 -14.5t14.5 -35.5t-14.5 -36t-35.5 -15t-36 15t-15 36zM159 275q0 21 14.5 36t35.5 15t36 -15t15 -36t-15 -35.5t-36 -14.5t-35.5 14.5t-14.5 35.5zM158 388q0 21 15 36t36 15t36 -15t15 -36t-15 -35.5t-36 -14.5t-36 14.5t-15 35.5zM209 451zM128 728q0 21 14.5 36
t35.5 15t36 -15t15 -36t-15 -36t-36 -15t-35.5 15t-14.5 36zM263 -18q0 21 14.5 35.5t35.5 14.5t36 -14.5t15 -35.5t-15 -36t-36 -15t-35.5 15t-14.5 36zM262 165q0 21 15 36t36 15t36 -15t15 -36t-15 -36t-36 -15t-36 15t-15 36zM262 505q0 21 14.5 35.5t35.5 14.5
t36 -14.5t15 -35.5t-15 -36t-36 -15t-35.5 15t-14.5 36zM261 731q0 21 15 36t36 15t36 -15t15 -36t-15 -36t-36 -15t-36 15t-15 36zM391 -18q0 21 14.5 36t35.5 15t36 -15t15 -36t-15 -36t-36 -15t-35.5 15t-14.5 36zM390 165q0 21 15 36t36 15t36 -15t15 -36t-15 -35.5
t-36 -14.5t-36 14.5t-15 35.5zM389 505q0 21 15 36t36 15t36 -15t15 -36t-15 -36t-36 -15t-36 15t-15 36zM389 731q0 21 15 36t36 15t35.5 -15t14.5 -36t-14.5 -35.5t-35.5 -14.5t-36 14.5t-15 35.5zM522 -20q0 21 15 35.5t36 14.5t36 -14.5t15 -35.5t-15 -36t-36 -15
t-36 15t-15 36zM522 163q0 21 15 36t36 15t35.5 -15t14.5 -36t-14.5 -36t-35.5 -15t-36 15t-15 36zM572 225zM521 503q0 21 15 35.5t36 14.5t36 -14.5t15 -35.5t-15 -36t-36 -15t-36 15t-15 36zM521 729q0 21 14.5 36t35.5 15t36 -15t15 -36t-15 -36t-36 -15t-35.5 15
t-14.5 36zM653 -20q0 21 15 36t36 15t35.5 -15t14.5 -36t-14.5 -35.5t-35.5 -14.5t-36 14.5t-15 35.5zM653 164q0 21 14.5 35.5t35.5 14.5t36 -14.5t15 -35.5t-15 -36t-36 -15t-35.5 15t-14.5 36zM652 503q0 21 15 36t36 15t35.5 -15t14.5 -36t-14.5 -36t-35.5 -15t-36 15
t-15 36zM652 730q0 21 14.5 35.5t35.5 14.5t36 -14.5t15 -35.5t-15 -36t-36 -15t-35.5 15t-14.5 36zM784 -17q0 21 15 36t36 15t35.5 -15t14.5 -36t-14.5 -36t-35.5 -15t-36 15t-15 36zM784 166q0 21 14.5 36t35.5 15t36 -15t15 -36t-15 -35.5t-36 -14.5t-35.5 14.5
t-14.5 35.5zM783 280q0 21 15 35.5t36 14.5t36 -14.5t15 -35.5t-15 -36t-36 -15t-36 15t-15 36zM783 393q0 21 15 35.5t36 14.5t35.5 -14.5t14.5 -35.5t-14.5 -36t-35.5 -15t-36 15t-15 36zM783 506q0 21 15 36t36 15t35.5 -15t14.5 -36t-14.5 -36t-35.5 -15t-36 15t-15 36z
M783 619q0 21 14.5 36t35.5 15t36 -15t15 -36t-15 -36t-36 -15t-35.5 15t-14.5 36z" />
    <glyph glyph-name="A" unicode="A" horiz-adv-x="777" 
d="M-2 51q0 21 15 36t36 15t36 -15t15 -36t-15 -36t-36 -15t-36 15t-15 36zM-2 164q0 21 15 36t36 15t35.5 -15t14.5 -36t-14.5 -35.5t-35.5 -14.5t-36 14.5t-15 35.5zM-2 277q0 21 14.5 36t35.5 15t36 -15t15 -36t-15 -35.5t-36 -14.5t-35.5 14.5t-14.5 35.5zM-3 391
q0 21 15 35.5t36 14.5t36 -14.5t15 -35.5t-15 -36t-36 -15t-36 15t-15 36zM-3 504q0 21 15 36t36 15t36 -15t15 -36t-15 -36t-36 -15t-36 15t-15 36zM-3 617q0 21 15 36t36 15t35.5 -15t14.5 -36t-14.5 -36t-35.5 -15t-36 15t-15 36zM129 275q0 21 14.5 36t35.5 15t36 -15
t15 -36t-15 -35.5t-36 -14.5t-35.5 14.5t-14.5 35.5zM128 728q0 21 14.5 36t35.5 15t36 -15t15 -36t-15 -36t-36 -15t-35.5 15t-14.5 36zM262 278q0 21 15 36t36 15t36 -15t15 -36t-15 -36t-36 -15t-36 15t-15 36zM261 731q0 21 15 36t36 15t36 -15t15 -36t-15 -36t-36 -15
t-36 15t-15 36zM390 278q0 21 15 36t36 15t35.5 -15t14.5 -36t-14.5 -35.5t-35.5 -14.5t-36 14.5t-15 35.5zM389 731q0 21 15 36t36 15t35.5 -15t14.5 -36t-14.5 -35.5t-35.5 -14.5t-36 14.5t-15 35.5zM522 50q0 21 15 35.5t36 14.5t36 -14.5t15 -35.5t-15 -36t-36 -15
t-36 15t-15 36zM522 163q0 21 15 36t36 15t35.5 -15t14.5 -36t-14.5 -36t-35.5 -15t-36 15t-15 36zM522 276q0 21 14.5 36t35.5 15t36 -15t15 -36t-15 -36t-36 -15t-35.5 15t-14.5 36zM522 389q0 21 14.5 36t35.5 15t36 -15t15 -36t-15 -35.5t-36 -14.5t-35.5 14.5
t-14.5 35.5zM521 503q0 21 15 35.5t36 14.5t36 -14.5t15 -35.5t-15 -36t-36 -15t-36 15t-15 36zM521 616q0 21 15 35.5t36 14.5t35.5 -14.5t14.5 -35.5t-14.5 -36t-35.5 -15t-36 15t-15 36z" />
    <glyph glyph-name="B" unicode="B" horiz-adv-x="767" 
d="M-2 51q0 21 15 36t36 15t36 -15t15 -36t-15 -36t-36 -15t-36 15t-15 36zM-2 164q0 21 15 36t36 15t35.5 -15t14.5 -36t-14.5 -35.5t-35.5 -14.5t-36 14.5t-15 35.5zM-2 277q0 21 14.5 36t35.5 15t36 -15t15 -36t-15 -35.5t-36 -14.5t-35.5 14.5t-14.5 35.5zM-3 391
q0 21 15 35.5t36 14.5t36 -14.5t15 -35.5t-15 -36t-36 -15t-36 15t-15 36zM-3 504q0 21 15 36t36 15t36 -15t15 -36t-15 -36t-36 -15t-36 15t-15 36zM-3 617q0 21 15 36t36 15t35.5 -15t14.5 -36t-14.5 -36t-35.5 -15t-36 15t-15 36zM-3 730q0 21 14.5 36t35.5 15t36 -15
t15 -36t-15 -35.5t-36 -14.5t-35.5 14.5t-14.5 35.5zM129 49q0 21 15 35.5t36 14.5t35.5 -14.5t14.5 -35.5t-14.5 -36t-35.5 -15t-36 15t-15 36zM128 388q0 21 15 36t36 15t36 -15t15 -36t-15 -35.5t-36 -14.5t-36 14.5t-15 35.5zM128 728q0 21 14.5 36t35.5 15t36 -15
t15 -36t-15 -36t-36 -15t-35.5 15t-14.5 36zM263 52q0 21 14.5 35.5t35.5 14.5t36 -14.5t15 -35.5t-15 -36t-36 -15t-35.5 15t-14.5 36zM262 391q0 22 14.5 42.5t35.5 20.5t36 -20.5t15 -42.5q0 -21 -14.5 -35.5t-35.5 -14.5t-36 14.5t-15 35.5zM261 731q0 21 15 36t36 15
t36 -15t15 -36t-15 -36t-36 -15t-36 15t-15 36zM391 52q0 21 14.5 36t35.5 15t36 -15t15 -36t-15 -36t-36 -15t-35.5 15t-14.5 36zM390 392q0 21 14.5 35.5t35.5 14.5t36 -14.5t15 -35.5t-15 -36t-36 -15t-35.5 15t-14.5 36zM389 731q0 21 15 36t36 15t35.5 -15t14.5 -36
t-14.5 -35.5t-35.5 -14.5t-36 14.5t-15 35.5zM522 163q0 21 15 36t36 15t35.5 -15t14.5 -36t-14.5 -36t-35.5 -15t-36 15t-15 36zM522 276q0 21 14.5 36t35.5 15t36 -15t15 -36t-15 -36t-36 -15t-35.5 15t-14.5 36zM521 503q0 21 15 35.5t36 14.5t36 -14.5t15 -35.5t-15 -36
t-36 -15t-36 15t-15 36zM521 616q0 21 15 35.5t36 14.5t35.5 -14.5t14.5 -35.5t-14.5 -36t-35.5 -15t-36 15t-15 36z" />
    <glyph glyph-name="C" unicode="C" horiz-adv-x="719" 
d="M-2 164q0 21 15 36t36 15t35.5 -15t14.5 -36t-14.5 -35.5t-35.5 -14.5t-36 14.5t-15 35.5zM-2 277q0 21 14.5 36t35.5 15t36 -15t15 -36t-15 -35.5t-36 -14.5t-35.5 14.5t-14.5 35.5zM-3 391q0 21 15 35.5t36 14.5t36 -14.5t15 -35.5t-15 -36t-36 -15t-36 15t-15 36z
M-3 504q0 21 15 36t36 15t36 -15t15 -36t-15 -36t-36 -15t-36 15t-15 36zM-3 617q0 21 15 36t36 15t35.5 -15t14.5 -36t-14.5 -36t-35.5 -15t-36 15t-15 36zM129 49q0 21 15 35.5t36 14.5t35.5 -14.5t14.5 -35.5t-14.5 -36t-35.5 -15t-36 15t-15 36zM128 728q0 21 14.5 36
t35.5 15t36 -15t15 -36t-15 -36t-36 -15t-35.5 15t-14.5 36zM263 52q0 21 14.5 35.5t35.5 14.5t36 -14.5t15 -35.5t-15 -36t-36 -15t-35.5 15t-14.5 36zM261 731q0 21 15 36t36 15t36 -15t15 -36t-15 -36t-36 -15t-36 15t-15 36zM391 52q0 21 14.5 36t35.5 15t36 -15t15 -36
t-15 -36t-36 -15t-35.5 15t-14.5 36zM389 731q0 21 15 36t36 15t35.5 -15t14.5 -36t-14.5 -35.5t-35.5 -14.5t-36 14.5t-15 35.5zM522 163q0 21 15 36t36 15t35.5 -15t14.5 -36t-14.5 -36t-35.5 -15t-36 15t-15 36zM521 616q0 21 15 35.5t36 14.5t35.5 -14.5t14.5 -35.5
t-14.5 -36t-35.5 -15t-36 15t-15 36z" />
    <glyph glyph-name="D" unicode="D" horiz-adv-x="774" 
d="M-2 51q0 21 15 36t36 15t36 -15t15 -36t-15 -36t-36 -15t-36 15t-15 36zM-2 164q0 21 15 36t36 15t35.5 -15t14.5 -36t-14.5 -35.5t-35.5 -14.5t-36 14.5t-15 35.5zM-2 277q0 21 14.5 36t35.5 15t36 -15t15 -36t-15 -35.5t-36 -14.5t-35.5 14.5t-14.5 35.5zM-3 391
q0 21 15 35.5t36 14.5t36 -14.5t15 -35.5t-15 -36t-36 -15t-36 15t-15 36zM-3 504q0 21 15 36t36 15t36 -15t15 -36t-15 -36t-36 -15t-36 15t-15 36zM-3 617q0 21 15 36t36 15t35.5 -15t14.5 -36t-14.5 -36t-35.5 -15t-36 15t-15 36zM-3 730q0 21 14.5 36t35.5 15t36 -15
t15 -36t-15 -35.5t-36 -14.5t-35.5 14.5t-14.5 35.5zM129 49q0 21 15 35.5t36 14.5t35.5 -14.5t14.5 -35.5t-14.5 -36t-35.5 -15t-36 15t-15 36zM128 728q0 21 14.5 36t35.5 15t36 -15t15 -36t-15 -36t-36 -15t-35.5 15t-14.5 36zM263 52q0 21 14.5 35.5t35.5 14.5t36 -14.5
t15 -35.5t-15 -36t-36 -15t-35.5 15t-14.5 36zM261 731q0 21 15 36t36 15t36 -15t15 -36t-15 -36t-36 -15t-36 15t-15 36zM391 52q0 21 14.5 36t35.5 15t36 -15t15 -36t-15 -36t-36 -15t-35.5 15t-14.5 36zM389 731q0 21 15 36t36 15t35.5 -15t14.5 -36t-14.5 -35.5
t-35.5 -14.5t-36 14.5t-15 35.5zM522 163q0 21 15 36t36 15t35.5 -15t14.5 -36t-14.5 -36t-35.5 -15t-36 15t-15 36zM522 276q0 21 14.5 36t35.5 15t36 -15t15 -36t-15 -36t-36 -15t-35.5 15t-14.5 36zM522 389q0 21 14.5 36t35.5 15t36 -15t15 -36t-15 -35.5t-36 -14.5
t-35.5 14.5t-14.5 35.5zM521 503q0 21 15 35.5t36 14.5t36 -14.5t15 -35.5t-15 -36t-36 -15t-36 15t-15 36zM521 616q0 21 15 35.5t36 14.5t35.5 -14.5t14.5 -35.5t-14.5 -36t-35.5 -15t-36 15t-15 36z" />
    <glyph glyph-name="E" unicode="E" horiz-adv-x="724" 
d="M-2 51q0 21 15 36t36 15t36 -15t15 -36t-15 -36t-36 -15t-36 15t-15 36zM-2 164q0 21 15 36t36 15t35.5 -15t14.5 -36t-14.5 -35.5t-35.5 -14.5t-36 14.5t-15 35.5zM-2 277q0 21 14.5 36t35.5 15t36 -15t15 -36t-15 -35.5t-36 -14.5t-35.5 14.5t-14.5 35.5zM-3 391
q0 21 15 35.5t36 14.5t36 -14.5t15 -35.5t-15 -36t-36 -15t-36 15t-15 36zM-3 504q0 21 15 36t36 15t36 -15t15 -36t-15 -36t-36 -15t-36 15t-15 36zM-3 617q0 21 15 36t36 15t35.5 -15t14.5 -36t-14.5 -36t-35.5 -15t-36 15t-15 36zM-3 730q0 21 14.5 36t35.5 15t36 -15
t15 -36t-15 -35.5t-36 -14.5t-35.5 14.5t-14.5 35.5zM129 49q0 21 15 35.5t36 14.5t35.5 -14.5t14.5 -35.5t-14.5 -36t-35.5 -15t-36 15t-15 36zM128 388q0 21 15 36t36 15t36 -15t15 -36t-15 -35.5t-36 -14.5t-36 14.5t-15 35.5zM128 728q0 21 14.5 36t35.5 15t36 -15
t15 -36t-15 -36t-36 -15t-35.5 15t-14.5 36zM263 52q0 21 14.5 35.5t35.5 14.5t36 -14.5t15 -35.5t-15 -36t-36 -15t-35.5 15t-14.5 36zM262 391q0 21 15 36t36 15t35.5 -15t14.5 -36t-14.5 -35.5t-35.5 -14.5t-36 14.5t-15 35.5zM261 731q0 21 15 36t36 15t36 -15t15 -36
t-15 -36t-36 -15t-36 15t-15 36zM391 52q0 21 14.5 36t35.5 15t36 -15t15 -36t-15 -36t-36 -15t-35.5 15t-14.5 36zM390 392q0 21 14.5 35.5t35.5 14.5t36 -14.5t15 -35.5t-15 -36t-36 -15t-35.5 15t-14.5 36zM389 731q0 21 15 36t36 15t35.5 -15t14.5 -36t-14.5 -35.5
t-35.5 -14.5t-36 14.5t-15 35.5zM522 50q0 21 15 35.5t36 14.5t36 -14.5t15 -35.5t-15 -36t-36 -15t-36 15t-15 36zM522 389q0 21 14.5 36t35.5 15t36 -15t15 -36t-15 -35.5t-36 -14.5t-35.5 14.5t-14.5 35.5zM521 729q0 21 14.5 36t35.5 15t36 -15t15 -36t-15 -36t-36 -15
t-35.5 15t-14.5 36z" />
    <glyph glyph-name="F" unicode="F" horiz-adv-x="700" 
d="M-2 51q0 21 15 36t36 15t36 -15t15 -36t-15 -36t-36 -15t-36 15t-15 36zM-2 164q0 21 15 36t36 15t35.5 -15t14.5 -36t-14.5 -35.5t-35.5 -14.5t-36 14.5t-15 35.5zM-2 277q0 21 14.5 36t35.5 15t36 -15t15 -36t-15 -35.5t-36 -14.5t-35.5 14.5t-14.5 35.5zM-3 391
q0 21 15 35.5t36 14.5t36 -14.5t15 -35.5t-15 -36t-36 -15t-36 15t-15 36zM-3 504q0 21 15 36t36 15t36 -15t15 -36t-15 -36t-36 -15t-36 15t-15 36zM-3 617q0 21 15 36t36 15t35.5 -15t14.5 -36t-14.5 -36t-35.5 -15t-36 15t-15 36zM-3 730q0 21 14.5 36t35.5 15t36 -15
t15 -36t-15 -35.5t-36 -14.5t-35.5 14.5t-14.5 35.5zM128 388q0 21 15 36t36 15t36 -15t15 -36t-15 -35.5t-36 -14.5t-36 14.5t-15 35.5zM128 728q0 21 14.5 36t35.5 15t36 -15t15 -36t-15 -36t-36 -15t-35.5 15t-14.5 36zM262 391q0 21 15 36t36 15t35.5 -15t14.5 -36
t-14.5 -35.5t-35.5 -14.5t-36 14.5t-15 35.5zM261 731q0 21 15 36t36 15t36 -15t15 -36t-15 -36t-36 -15t-36 15t-15 36zM390 392q0 21 14.5 35.5t35.5 14.5t36 -14.5t15 -35.5t-15 -36t-36 -15t-35.5 15t-14.5 36zM389 731q0 21 15 36t36 15t35.5 -15t14.5 -36t-14.5 -35.5
t-35.5 -14.5t-36 14.5t-15 35.5zM522 389q0 21 14.5 36t35.5 15t36 -15t15 -36t-15 -35.5t-36 -14.5t-35.5 14.5t-14.5 35.5zM521 729q0 21 14.5 36t35.5 15t36 -15t15 -36t-15 -36t-36 -15t-35.5 15t-14.5 36z" />
    <glyph glyph-name="G" unicode="G" horiz-adv-x="760" 
d="M-2 164q0 21 15 36t36 15t35.5 -15t14.5 -36t-14.5 -35.5t-35.5 -14.5t-36 14.5t-15 35.5zM-2 277q0 21 14.5 36t35.5 15t36 -15t15 -36t-15 -35.5t-36 -14.5t-35.5 14.5t-14.5 35.5zM-3 391q0 21 15 35.5t36 14.5t36 -14.5t15 -35.5t-15 -36t-36 -15t-36 15t-15 36z
M-3 504q0 21 15 36t36 15t36 -15t15 -36t-15 -36t-36 -15t-36 15t-15 36zM-3 617q0 21 15 36t36 15t35.5 -15t14.5 -36t-14.5 -36t-35.5 -15t-36 15t-15 36zM129 49q0 21 15 35.5t36 14.5t35.5 -14.5t14.5 -35.5t-14.5 -36t-35.5 -15t-36 15t-15 36zM128 728q0 21 14.5 36
t35.5 15t36 -15t15 -36t-15 -36t-36 -15t-35.5 15t-14.5 36zM263 52q0 21 14.5 35.5t35.5 14.5t36 -14.5t15 -35.5t-15 -36t-36 -15t-35.5 15t-14.5 36zM261 731q0 21 15 36t36 15t36 -15t15 -36t-15 -36t-36 -15t-36 15t-15 36zM391 52q0 21 14.5 36t35.5 15t36 -15t15 -36
t-15 -36t-36 -15t-35.5 15t-14.5 36zM390 392q0 21 14.5 35.5t35.5 14.5t36 -14.5t15 -35.5t-15 -36t-36 -15t-35.5 15t-14.5 36zM389 731q0 21 15 36t36 15t35.5 -15t14.5 -36t-14.5 -35.5t-35.5 -14.5t-36 14.5t-15 35.5zM522 163q0 21 15 36t36 15t35.5 -15t14.5 -36
t-14.5 -36t-35.5 -15t-36 15t-15 36zM522 276q0 21 14.5 36t35.5 15t36 -15t15 -36t-15 -36t-36 -15t-35.5 15t-14.5 36zM522 389q0 21 14.5 36t35.5 15t36 -15t15 -36t-15 -35.5t-36 -14.5t-35.5 14.5t-14.5 35.5zM521 616q0 21 15 35.5t36 14.5t35.5 -14.5t14.5 -35.5
t-14.5 -36t-35.5 -15t-36 15t-15 36z" />
    <glyph glyph-name="H" unicode="H" horiz-adv-x="774" 
d="M-2 51q0 21 15 36t36 15t36 -15t15 -36t-15 -36t-36 -15t-36 15t-15 36zM-2 164q0 21 15 36t36 15t35.5 -15t14.5 -36t-14.5 -35.5t-35.5 -14.5t-36 14.5t-15 35.5zM-2 277q0 21 14.5 36t35.5 15t36 -15t15 -36t-15 -35.5t-36 -14.5t-35.5 14.5t-14.5 35.5zM-3 391
q0 21 15 35.5t36 14.5t36 -14.5t15 -35.5t-15 -36t-36 -15t-36 15t-15 36zM-3 504q0 21 15 36t36 15t36 -15t15 -36t-15 -36t-36 -15t-36 15t-15 36zM-3 617q0 21 15 36t36 15t35.5 -15t14.5 -36t-14.5 -36t-35.5 -15t-36 15t-15 36zM-3 730q0 21 14.5 36t35.5 15t36 -15
t15 -36t-15 -35.5t-36 -14.5t-35.5 14.5t-14.5 35.5zM128 388q0 21 15 36t36 15t36 -15t15 -36t-15 -35.5t-36 -14.5t-36 14.5t-15 35.5zM262 391q0 21 15 36t36 15t35.5 -15t14.5 -36t-14.5 -35.5t-35.5 -14.5t-36 14.5t-15 35.5zM390 392q0 21 14.5 35.5t35.5 14.5
t36 -14.5t15 -35.5t-15 -36t-36 -15t-35.5 15t-14.5 36zM522 50q0 21 15 35.5t36 14.5t36 -14.5t15 -35.5t-15 -36t-36 -15t-36 15t-15 36zM522 163q0 21 15 36t36 15t35.5 -15t14.5 -36t-14.5 -36t-35.5 -15t-36 15t-15 36zM522 276q0 21 14.5 36t35.5 15t36 -15t15 -36
t-15 -36t-36 -15t-35.5 15t-14.5 36zM522 389q0 21 14.5 36t35.5 15t36 -15t15 -36t-15 -35.5t-36 -14.5t-35.5 14.5t-14.5 35.5zM521 503q0 21 15 35.5t36 14.5t36 -14.5t15 -35.5t-15 -36t-36 -15t-36 15t-15 36zM521 616q0 21 15 35.5t36 14.5t35.5 -14.5t14.5 -35.5
t-14.5 -36t-35.5 -15t-36 15t-15 36zM521 729q0 21 14.5 36t35.5 15t36 -15t15 -36t-15 -36t-36 -15t-35.5 15t-14.5 36z" />
    <glyph glyph-name="I" unicode="I" horiz-adv-x="250" 
d="M-2 51q0 21 15 36t36 15t36 -15t15 -36t-15 -36t-36 -15t-36 15t-15 36zM-2 164q0 21 15 36t36 15t35.5 -15t14.5 -36t-14.5 -35.5t-35.5 -14.5t-36 14.5t-15 35.5zM-2 277q0 21 14.5 36t35.5 15t36 -15t15 -36t-15 -35.5t-36 -14.5t-35.5 14.5t-14.5 35.5zM-3 391
q0 21 15 35.5t36 14.5t36 -14.5t15 -35.5t-15 -36t-36 -15t-36 15t-15 36zM-3 504q0 21 15 36t36 15t36 -15t15 -36t-15 -36t-36 -15t-36 15t-15 36zM-3 617q0 21 15 36t36 15t35.5 -15t14.5 -36t-14.5 -36t-35.5 -15t-36 15t-15 36zM-3 730q0 21 14.5 36t35.5 15t36 -15
t15 -36t-15 -35.5t-36 -14.5t-35.5 14.5t-14.5 35.5z" />
    <glyph glyph-name="J" unicode="J" horiz-adv-x="777" 
d="M-2 164q0 21 15 36t36 15t35.5 -15t14.5 -36t-14.5 -35.5t-35.5 -14.5t-36 14.5t-15 35.5zM-2 277q0 21 14.5 36t35.5 15t36 -15t15 -36t-15 -35.5t-36 -14.5t-35.5 14.5t-14.5 35.5zM129 49q0 21 15 35.5t36 14.5t35.5 -14.5t14.5 -35.5t-14.5 -36t-35.5 -15t-36 15
t-15 36zM180 111zM263 52q0 21 14.5 35.5t35.5 14.5t36 -14.5t15 -35.5t-15 -36t-36 -15t-35.5 15t-14.5 36zM313 114zM391 52q0 21 14.5 36t35.5 15t36 -15t15 -36t-15 -36t-36 -15t-35.5 15t-14.5 36zM441 115zM522 163q0 21 15 36t36 15t35.5 -15t14.5 -36t-14.5 -36
t-35.5 -15t-36 15t-15 36zM522 276q0 21 14.5 36t35.5 15t36 -15t15 -36t-15 -36t-36 -15t-35.5 15t-14.5 36zM522 389q0 21 14.5 36t35.5 15t36 -15t15 -36t-15 -35.5t-36 -14.5t-35.5 14.5t-14.5 35.5zM521 503q0 21 15 35.5t36 14.5t36 -14.5t15 -35.5t-15 -36t-36 -15
t-36 15t-15 36zM521 616q0 21 15 35.5t36 14.5t35.5 -14.5t14.5 -35.5t-14.5 -36t-35.5 -15t-36 15t-15 36zM521 729q0 21 14.5 36t35.5 15t36 -15t15 -36t-15 -36t-36 -15t-35.5 15t-14.5 36z" />
    <glyph glyph-name="K" unicode="K" horiz-adv-x="778" 
d="M-2 51q0 21 15 36t36 15t36 -15t15 -36t-15 -36t-36 -15t-36 15t-15 36zM-2 164q0 21 15 36t36 15t35.5 -15t14.5 -36t-14.5 -35.5t-35.5 -14.5t-36 14.5t-15 35.5zM-2 277q0 21 14.5 36t35.5 15t36 -15t15 -36t-15 -35.5t-36 -14.5t-35.5 14.5t-14.5 35.5zM-3 391
q0 21 15 35.5t36 14.5t36 -14.5t15 -35.5t-15 -36t-36 -15t-36 15t-15 36zM-3 504q0 21 15 36t36 15t36 -15t15 -36t-15 -36t-36 -15t-36 15t-15 36zM-3 617q0 21 15 36t36 15t35.5 -15t14.5 -36t-14.5 -36t-35.5 -15t-36 15t-15 36zM-3 730q0 21 14.5 36t35.5 15t36 -15
t15 -36t-15 -35.5t-36 -14.5t-35.5 14.5t-14.5 35.5zM128 388q0 21 15 36t36 15t36 -15t15 -36t-15 -35.5t-36 -14.5t-36 14.5t-15 35.5zM262 391q0 21 15 36t36 15t35.5 -15t14.5 -36t-14.5 -35.5t-35.5 -14.5t-36 14.5t-15 35.5zM522 50q0 21 15 35.5t36 14.5t36 -14.5
t15 -35.5t-15 -36t-36 -15t-36 15t-15 36zM522 163q0 21 15 36t36 15t35.5 -15t14.5 -36t-14.5 -36t-35.5 -15t-36 15t-15 36zM392 276q0 21 14.5 36t35.5 15t36 -15t15 -36t-15 -36t-36 -15t-35.5 15t-14.5 36zM391 503q0 21 15 35.5t36 14.5t36 -14.5t15 -35.5t-15 -36
t-36 -15t-36 15t-15 36zM521 616q0 21 15 35.5t36 14.5t35.5 -14.5t14.5 -35.5t-14.5 -36t-35.5 -15t-36 15t-15 36zM521 729q0 21 14.5 36t35.5 15t36 -15t15 -36t-15 -36t-36 -15t-35.5 15t-14.5 36z" />
    <glyph glyph-name="L" unicode="L" horiz-adv-x="686" 
d="M-2 51q0 21 15 36t36 15t36 -15t15 -36t-15 -36t-36 -15t-36 15t-15 36zM-2 164q0 21 15 36t36 15t35.5 -15t14.5 -36t-14.5 -35.5t-35.5 -14.5t-36 14.5t-15 35.5zM-2 277q0 21 14.5 36t35.5 15t36 -15t15 -36t-15 -35.5t-36 -14.5t-35.5 14.5t-14.5 35.5zM-3 391
q0 21 15 35.5t36 14.5t36 -14.5t15 -35.5t-15 -36t-36 -15t-36 15t-15 36zM-3 504q0 21 15 36t36 15t36 -15t15 -36t-15 -36t-36 -15t-36 15t-15 36zM-3 617q0 21 15 36t36 15t35.5 -15t14.5 -36t-14.5 -36t-35.5 -15t-36 15t-15 36zM-3 730q0 21 14.5 36t35.5 15t36 -15
t15 -36t-15 -35.5t-36 -14.5t-35.5 14.5t-14.5 35.5zM129 49q0 21 15 35.5t36 14.5t35.5 -14.5t14.5 -35.5t-14.5 -36t-35.5 -15t-36 15t-15 36zM263 52q0 21 14.5 35.5t35.5 14.5t36 -14.5t15 -35.5t-15 -36t-36 -15t-35.5 15t-14.5 36zM391 52q0 21 14.5 36t35.5 15
t36 -15t15 -36t-15 -36t-36 -15t-35.5 15t-14.5 36zM522 50q0 21 15 35.5t36 14.5t36 -14.5t15 -35.5t-15 -36t-36 -15t-36 15t-15 36z" />
    <glyph glyph-name="M" unicode="M" horiz-adv-x="1035" 
d="M-2 164q0 21 15 36t36 15t35.5 -15t14.5 -36t-14.5 -35.5t-35.5 -14.5t-36 14.5t-15 35.5zM-2 277q0 21 14.5 36t35.5 15t36 -15t15 -36t-15 -35.5t-36 -14.5t-35.5 14.5t-14.5 35.5zM-3 391q0 21 15 35.5t36 14.5t36 -14.5t15 -35.5t-15 -36t-36 -15t-36 15t-15 36z
M-3 504q0 21 15 36t36 15t36 -15t15 -36t-15 -36t-36 -15t-36 15t-15 36zM-3 617q0 21 15 36t36 15t35.5 -15t14.5 -36t-14.5 -36t-35.5 -15t-36 15t-15 36zM-3 730q0 21 14.5 36t35.5 15t36 -15t15 -36t-15 -35.5t-36 -14.5t-35.5 14.5t-14.5 35.5zM179 552zM128 615
q0 21 15 36t36 15t35.5 -15t14.5 -36t-14.5 -36t-35.5 -15t-36 15t-15 36zM262 505q0 21 14.5 35.5t35.5 14.5t36 -14.5t15 -35.5t-15 -36t-36 -15t-35.5 15t-14.5 36zM390 392q0 21 14.5 35.5t35.5 14.5t36 -14.5t15 -35.5t-15 -36t-36 -15t-35.5 15t-14.5 36zM521 503
q0 21 15 35.5t36 14.5t36 -14.5t15 -35.5t-15 -36t-36 -15t-36 15t-15 36zM652 616q0 21 14.5 36t35.5 15t36 -15t15 -36t-15 -35.5t-36 -14.5t-35.5 14.5t-14.5 35.5zM784 53q0 21 15 36t36 15t35.5 -15t14.5 -36t-14.5 -36t-35.5 -15t-36 15t-15 36zM784 166q0 21 14.5 36
t35.5 15t36 -15t15 -36t-15 -35.5t-36 -14.5t-35.5 14.5t-14.5 35.5zM783 280q0 21 15 35.5t36 14.5t36 -14.5t15 -35.5t-15 -36t-36 -15t-36 15t-15 36zM783 393q0 21 15 35.5t36 14.5t35.5 -14.5t14.5 -35.5t-14.5 -36t-35.5 -15t-36 15t-15 36zM783 506q0 21 15 36t36 15
t35.5 -15t14.5 -36t-14.5 -36t-35.5 -15t-36 15t-15 36zM783 619q0 21 14.5 36t35.5 15t36 -15t15 -36t-15 -36t-36 -15t-35.5 15t-14.5 36zM782 732q0 21 15 36t36 15t36 -15t15 -36t-15 -35.5t-36 -14.5t-36 14.5t-15 35.5zM48 0q-20 0 -35 15t-15 36t15 36t36 15t36 -15
t15 -36t-15 -36t-37 -15z" />
    <glyph glyph-name="N" unicode="N" horiz-adv-x="774" 
d="M-2 51q0 21 15 36t36 15t36 -15t15 -36t-15 -36t-36 -15t-36 15t-15 36zM-2 164q0 21 15 36t36 15t35.5 -15t14.5 -36t-14.5 -35.5t-35.5 -14.5t-36 14.5t-15 35.5zM-2 277q0 21 14.5 36t35.5 15t36 -15t15 -36t-15 -35.5t-36 -14.5t-35.5 14.5t-14.5 35.5zM-3 391
q0 21 15 35.5t36 14.5t36 -14.5t15 -35.5t-15 -36t-36 -15t-36 15t-15 36zM-3 504q0 21 15 36t36 15t36 -15t15 -36t-15 -36t-36 -15t-36 15t-15 36zM-3 617q0 21 15 36t36 15t35.5 -15t14.5 -36t-14.5 -36t-35.5 -15t-36 15t-15 36zM-3 730q0 21 14.5 36t35.5 15t36 -15
t15 -36t-15 -35.5t-36 -14.5t-35.5 14.5t-14.5 35.5zM128 502q0 21 15 35.5t36 14.5t35.5 -14.5t14.5 -35.5t-14.5 -36t-35.5 -15t-36 15t-15 36zM262 391q0 21 15 36t36 15t35.5 -15t14.5 -36t-14.5 -35.5t-35.5 -14.5t-36 14.5t-15 35.5zM390 278q0 21 15 36t36 15
t35.5 -15t14.5 -36t-14.5 -35.5t-35.5 -14.5t-36 14.5t-15 35.5zM522 50q0 21 15 35.5t36 14.5t36 -14.5t15 -35.5t-15 -36t-36 -15t-36 15t-15 36zM522 163q0 21 15 36t36 15t35.5 -15t14.5 -36t-14.5 -36t-35.5 -15t-36 15t-15 36zM522 276q0 21 14.5 36t35.5 15t36 -15
t15 -36t-15 -36t-36 -15t-35.5 15t-14.5 36zM522 389q0 21 14.5 36t35.5 15t36 -15t15 -36t-15 -35.5t-36 -14.5t-35.5 14.5t-14.5 35.5zM521 503q0 21 15 35.5t36 14.5t36 -14.5t15 -35.5t-15 -36t-36 -15t-36 15t-15 36zM521 616q0 21 15 35.5t36 14.5t35.5 -14.5
t14.5 -35.5t-14.5 -36t-35.5 -15t-36 15t-15 36zM521 729q0 21 14.5 36t35.5 15t36 -15t15 -36t-15 -36t-36 -15t-35.5 15t-14.5 36z" />
    <glyph glyph-name="O" unicode="O" horiz-adv-x="774" 
d="M-2 164q0 21 15 36t36 15t35.5 -15t14.5 -36t-14.5 -35.5t-35.5 -14.5t-36 14.5t-15 35.5zM-2 277q0 21 14.5 36t35.5 15t36 -15t15 -36t-15 -35.5t-36 -14.5t-35.5 14.5t-14.5 35.5zM-3 391q0 21 15 35.5t36 14.5t36 -14.5t15 -35.5t-15 -36t-36 -15t-36 15t-15 36z
M-3 504q0 21 15 36t36 15t36 -15t15 -36t-15 -36t-36 -15t-36 15t-15 36zM-3 617q0 21 15 36t36 15t35.5 -15t14.5 -36t-14.5 -36t-35.5 -15t-36 15t-15 36zM129 49q0 21 15 35.5t36 14.5t35.5 -14.5t14.5 -35.5t-14.5 -36t-35.5 -15t-36 15t-15 36zM128 728q0 21 14.5 36
t35.5 15t36 -15t15 -36t-15 -36t-36 -15t-35.5 15t-14.5 36zM263 52q0 21 14.5 35.5t35.5 14.5t36 -14.5t15 -35.5t-15 -36t-36 -15t-35.5 15t-14.5 36zM261 731q0 21 15 36t36 15t36 -15t15 -36t-15 -36t-36 -15t-36 15t-15 36zM391 52q0 21 14.5 36t35.5 15t36 -15t15 -36
t-15 -36t-36 -15t-35.5 15t-14.5 36zM389 731q0 21 15 36t36 15t35.5 -15t14.5 -36t-14.5 -35.5t-35.5 -14.5t-36 14.5t-15 35.5zM522 163q0 21 15 36t36 15t35.5 -15t14.5 -36t-14.5 -36t-35.5 -15t-36 15t-15 36zM522 276q0 21 14.5 36t35.5 15t36 -15t15 -36t-15 -36
t-36 -15t-35.5 15t-14.5 36zM522 389q0 21 14.5 36t35.5 15t36 -15t15 -36t-15 -35.5t-36 -14.5t-35.5 14.5t-14.5 35.5zM521 503q0 21 15 35.5t36 14.5t36 -14.5t15 -35.5t-15 -36t-36 -15t-36 15t-15 36zM521 616q0 21 15 35.5t36 14.5t35.5 -14.5t14.5 -35.5t-14.5 -36
t-35.5 -15t-36 15t-15 36z" />
    <glyph glyph-name="P" unicode="P" horiz-adv-x="726" 
d="M-2 51q0 21 15 36t36 15t36 -15t15 -36t-15 -36t-36 -15t-36 15t-15 36zM-2 164q0 21 15 36t36 15t35.5 -15t14.5 -36t-14.5 -35.5t-35.5 -14.5t-36 14.5t-15 35.5zM-2 277q0 21 14.5 36t35.5 15t36 -15t15 -36t-15 -35.5t-36 -14.5t-35.5 14.5t-14.5 35.5zM-3 391
q0 21 15 35.5t36 14.5t36 -14.5t15 -35.5t-15 -36t-36 -15t-36 15t-15 36zM-3 504q0 21 15 36t36 15t36 -15t15 -36t-15 -36t-36 -15t-36 15t-15 36zM-3 617q0 21 15 36t36 15t35.5 -15t14.5 -36t-14.5 -36t-35.5 -15t-36 15t-15 36zM-3 730q0 21 14.5 36t35.5 15t36 -15
t15 -36t-15 -35.5t-36 -14.5t-35.5 14.5t-14.5 35.5zM128 388q0 21 15 36t36 15t36 -15t15 -36t-15 -35.5t-36 -14.5t-36 14.5t-15 35.5zM128 728q0 21 14.5 36t35.5 15t36 -15t15 -36t-15 -36t-36 -15t-35.5 15t-14.5 36zM262 391q0 21 15 36t36 15t35.5 -15t14.5 -36
t-14.5 -35.5t-35.5 -14.5t-36 14.5t-15 35.5zM261 731q0 21 15 36t36 15t36 -15t15 -36t-15 -36t-36 -15t-36 15t-15 36zM390 392q0 21 14.5 35.5t35.5 14.5t36 -14.5t15 -35.5t-15 -36t-36 -15t-35.5 15t-14.5 36zM389 731q0 21 15 36t36 15t35.5 -15t14.5 -36t-14.5 -35.5
t-35.5 -14.5t-36 14.5t-15 35.5zM521 503q0 21 15 35.5t36 14.5t36 -14.5t15 -35.5t-15 -36t-36 -15t-36 15t-15 36zM521 616q0 21 15 35.5t36 14.5t35.5 -14.5t14.5 -35.5t-14.5 -36t-35.5 -15t-36 15t-15 36z" />
    <glyph glyph-name="Q" unicode="Q" horiz-adv-x="766" 
d="M49 102zM-2 164q0 21 15 36t36 15t35.5 -15t14.5 -36t-14.5 -35.5t-35.5 -14.5t-36 14.5t-15 35.5zM-2 277q0 21 14.5 36t35.5 15t36 -15t15 -36t-15 -35.5t-36 -14.5t-35.5 14.5t-14.5 35.5zM-3 391q0 21 15 35.5t36 14.5t36 -14.5t15 -35.5t-15 -36t-36 -15t-36 15
t-15 36zM-3 504q0 21 15 36t36 15t36 -15t15 -36t-15 -36t-36 -15t-36 15t-15 36zM-3 617q0 21 15 36t36 15t35.5 -15t14.5 -36t-14.5 -36t-35.5 -15t-36 15t-15 36zM129 49q0 21 15 35.5t36 14.5t35.5 -14.5t14.5 -35.5t-14.5 -36t-35.5 -15t-36 15t-15 36zM128 728
q0 21 14.5 36t35.5 15t36 -15t15 -36t-15 -36t-36 -15t-35.5 15t-14.5 36zM263 52q0 21 14.5 35.5t35.5 14.5t36 -14.5t15 -35.5t-15 -36t-36 -15t-35.5 15t-14.5 36zM261 731q0 21 15 36t36 15t36 -15t15 -36t-15 -36t-36 -15t-36 15t-15 36zM391 52q0 21 14.5 36t35.5 15
t36 -15t15 -36t-15 -36t-36 -15t-35.5 15t-14.5 36zM389 731q0 21 15 36t36 15t35.5 -15t14.5 -36t-14.5 -35.5t-35.5 -14.5t-36 14.5t-15 35.5zM522 163q0 21 15 36t36 15t35.5 -15t14.5 -36t-14.5 -36t-35.5 -15t-36 15t-15 36zM522 276q0 21 14.5 36t35.5 15t36 -15
t15 -36t-15 -36t-36 -15t-35.5 15t-14.5 36zM522 389q0 21 14.5 36t35.5 15t36 -15t15 -36t-15 -35.5t-36 -14.5t-35.5 14.5t-14.5 35.5zM521 503q0 21 15 35.5t36 14.5t36 -14.5t15 -35.5t-15 -36t-36 -15t-36 15t-15 36zM521 616q0 21 15 35.5t36 14.5t35.5 -14.5
t14.5 -35.5t-14.5 -36t-35.5 -15t-36 15t-15 36zM462 -51q0 21 15 36t36 15t35.5 -15t14.5 -36t-14.5 -36t-35.5 -15t-36 15t-15 36z" />
    <glyph glyph-name="R" unicode="R" horiz-adv-x="776" 
d="M-2 51q0 21 15 36t36 15t36 -15t15 -36t-15 -36t-36 -15t-36 15t-15 36zM-2 164q0 21 15 36t36 15t35.5 -15t14.5 -36t-14.5 -35.5t-35.5 -14.5t-36 14.5t-15 35.5zM-2 277q0 21 14.5 36t35.5 15t36 -15t15 -36t-15 -35.5t-36 -14.5t-35.5 14.5t-14.5 35.5zM-3 391
q0 21 15 35.5t36 14.5t36 -14.5t15 -35.5t-15 -36t-36 -15t-36 15t-15 36zM-3 504q0 21 15 36t36 15t36 -15t15 -36t-15 -36t-36 -15t-36 15t-15 36zM-3 617q0 21 15 36t36 15t35.5 -15t14.5 -36t-14.5 -36t-35.5 -15t-36 15t-15 36zM-3 730q0 21 14.5 36t35.5 15t36 -15
t15 -36t-15 -35.5t-36 -14.5t-35.5 14.5t-14.5 35.5zM128 388q0 21 15 36t36 15t36 -15t15 -36t-15 -35.5t-36 -14.5t-36 14.5t-15 35.5zM179 666zM128 728q0 21 14.5 36t35.5 15t36 -15t15 -36t-15 -36t-36 -15t-35.5 15t-14.5 36zM262 391q0 21 15 36t36 15t35.5 -15
t14.5 -36t-14.5 -35.5t-35.5 -14.5t-36 14.5t-15 35.5zM312 668zM261 731q0 21 15 36t36 15t36 -15t15 -36t-15 -36t-36 -15t-36 15t-15 36zM390 392q0 21 14.5 35.5t35.5 14.5t36 -14.5t15 -35.5t-15 -36t-36 -15t-35.5 15t-14.5 36zM440 669zM389 731q0 21 15 36t36 15
t35.5 -15t14.5 -36t-14.5 -35.5t-35.5 -14.5t-36 14.5t-15 35.5zM522 50q0 21 15 35.5t36 14.5t36 -14.5t15 -35.5t-15 -36t-36 -15t-36 15t-15 36zM522 163q0 21 15 36t36 15t35.5 -15t14.5 -36t-14.5 -36t-35.5 -15t-36 15t-15 36zM522 276q0 21 14.5 36t35.5 15t36 -15
t15 -36t-15 -36t-36 -15t-35.5 15t-14.5 36zM521 503q0 21 15 35.5t36 14.5t36 -14.5t15 -35.5t-15 -36t-36 -15t-36 15t-15 36zM521 616q0 21 15 35.5t36 14.5t35.5 -14.5t14.5 -35.5t-14.5 -36t-35.5 -15t-36 15t-15 36z" />
    <glyph glyph-name="S" unicode="S" horiz-adv-x="759" 
d="M-2 164q0 21 15 36t36 15t35.5 -15t14.5 -36t-14.5 -35.5t-35.5 -14.5t-36 14.5t-15 35.5zM-3 504q0 21 15 36t36 15t36 -15t15 -36t-15 -36t-36 -15t-36 15t-15 36zM-3 617q0 21 15 36t36 15t35.5 -15t14.5 -36t-14.5 -36t-35.5 -15t-36 15t-15 36zM129 49q0 21 15 35.5
t36 14.5t35.5 -14.5t14.5 -35.5t-14.5 -36t-35.5 -15t-36 15t-15 36zM128 388q0 21 15 36t36 15t36 -15t15 -36t-15 -35.5t-36 -14.5t-36 14.5t-15 35.5zM128 728q0 21 14.5 36t35.5 15t36 -15t15 -36t-15 -36t-36 -15t-35.5 15t-14.5 36zM263 52q0 21 14.5 35.5t35.5 14.5
t36 -14.5t15 -35.5t-15 -36t-36 -15t-35.5 15t-14.5 36zM262 391q0 21 15 36t36 15t35.5 -15t14.5 -36t-14.5 -35.5t-35.5 -14.5t-36 14.5t-15 35.5zM261 731q0 21 15 36t36 15t36 -15t15 -36t-15 -36t-36 -15t-36 15t-15 36zM391 52q0 21 14.5 36t35.5 15t36 -15t15 -36
t-15 -36t-36 -15t-35.5 15t-14.5 36zM390 392q0 21 14.5 35.5t35.5 14.5t36 -14.5t15 -35.5t-15 -36t-36 -15t-35.5 15t-14.5 36zM389 731q0 21 15 36t36 15t35.5 -15t14.5 -36t-14.5 -35.5t-35.5 -14.5t-36 14.5t-15 35.5zM522 163q0 21 15 36t36 15t35.5 -15t14.5 -36
t-14.5 -36t-35.5 -15t-36 15t-15 36zM522 276q0 21 14.5 36t35.5 15t36 -15t15 -36t-15 -36t-36 -15t-35.5 15t-14.5 36zM521 616q0 21 15 35.5t36 14.5t35.5 -14.5t14.5 -35.5t-14.5 -36t-35.5 -15t-36 15t-15 36z" />
    <glyph glyph-name="T" unicode="T" horiz-adv-x="747" 
d="M-3 730q0 21 14.5 36t35.5 15t36 -15t15 -36t-15 -35.5t-36 -14.5t-35.5 14.5t-14.5 35.5zM128 728q0 21 14.5 36t35.5 15t36 -15t15 -36t-15 -36t-36 -15t-35.5 15t-14.5 36zM263 52q0 21 14.5 35.5t35.5 14.5t36 -14.5t15 -35.5t-15 -36t-36 -15t-35.5 15t-14.5 36z
M262 165q0 21 15 36t36 15t36 -15t15 -36t-15 -36t-36 -15t-36 15t-15 36zM262 278q0 21 15 36t36 15t36 -15t15 -36t-15 -36t-36 -15t-36 15t-15 36zM262 391q0 21 15 36t36 15t35.5 -15t14.5 -36t-14.5 -35.5t-35.5 -14.5t-36 14.5t-15 35.5zM262 505q0 21 14.5 35.5
t35.5 14.5t36 -14.5t15 -35.5t-15 -36t-36 -15t-35.5 15t-14.5 36zM261 618q0 21 15 35.5t36 14.5t36 -14.5t15 -35.5t-15 -36t-36 -15t-36 15t-15 36zM261 731q0 21 15 36t36 15t36 -15t15 -36t-15 -36t-36 -15t-36 15t-15 36zM389 731q0 21 15 36t36 15t35.5 -15t14.5 -36
t-14.5 -35.5t-35.5 -14.5t-36 14.5t-15 35.5zM521 729q0 21 14.5 36t35.5 15t36 -15t15 -36t-15 -36t-36 -15t-35.5 15t-14.5 36z" />
    <glyph glyph-name="U" unicode="U" horiz-adv-x="777" 
d="M-2 164q0 21 15 36t36 15t35.5 -15t14.5 -36t-14.5 -35.5t-35.5 -14.5t-36 14.5t-15 35.5zM-2 277q0 21 14.5 36t35.5 15t36 -15t15 -36t-15 -35.5t-36 -14.5t-35.5 14.5t-14.5 35.5zM-3 391q0 21 15 35.5t36 14.5t36 -14.5t15 -35.5t-15 -36t-36 -15t-36 15t-15 36z
M-3 504q0 21 15 36t36 15t36 -15t15 -36t-15 -36t-36 -15t-36 15t-15 36zM-3 617q0 21 15 36t36 15t35.5 -15t14.5 -36t-14.5 -36t-35.5 -15t-36 15t-15 36zM-3 730q0 21 14.5 36t35.5 15t36 -15t15 -36t-15 -35.5t-36 -14.5t-35.5 14.5t-14.5 35.5zM129 49q0 21 15 35.5
t36 14.5t35.5 -14.5t14.5 -35.5t-14.5 -36t-35.5 -15t-36 15t-15 36zM263 52q0 21 14.5 35.5t35.5 14.5t36 -14.5t15 -35.5t-15 -36t-36 -15t-35.5 15t-14.5 36zM391 52q0 21 14.5 36t35.5 15t36 -15t15 -36t-15 -36t-36 -15t-35.5 15t-14.5 36zM522 163q0 21 15 36t36 15
t35.5 -15t14.5 -36t-14.5 -36t-35.5 -15t-36 15t-15 36zM522 276q0 21 14.5 36t35.5 15t36 -15t15 -36t-15 -36t-36 -15t-35.5 15t-14.5 36zM522 389q0 21 14.5 36t35.5 15t36 -15t15 -36t-15 -35.5t-36 -14.5t-35.5 14.5t-14.5 35.5zM521 503q0 21 15 35.5t36 14.5
t36 -14.5t15 -35.5t-15 -36t-36 -15t-36 15t-15 36zM521 616q0 21 15 35.5t36 14.5t35.5 -14.5t14.5 -35.5t-14.5 -36t-35.5 -15t-36 15t-15 36zM521 729q0 21 14.5 36t35.5 15t36 -15t15 -36t-15 -36t-36 -15t-35.5 15t-14.5 36z" />
    <glyph glyph-name="V" unicode="V" horiz-adv-x="774" 
d="M-2 277q0 21 14.5 36t35.5 15t36 -15t15 -36t-15 -35.5t-36 -14.5t-35.5 14.5t-14.5 35.5zM-3 391q0 21 15 35.5t36 14.5t36 -14.5t15 -35.5t-15 -36t-36 -15t-36 15t-15 36zM-3 504q0 21 15 36t36 15t36 -15t15 -36t-15 -36t-36 -15t-36 15t-15 36zM-3 617q0 21 15 36
t36 15t35.5 -15t14.5 -36t-14.5 -36t-35.5 -15t-36 15t-15 36zM-3 730q0 21 14.5 36t35.5 15t36 -15t15 -36t-15 -35.5t-36 -14.5t-35.5 14.5t-14.5 35.5zM129 162q0 21 15 36t36 15t35.5 -15t14.5 -36t-14.5 -36t-35.5 -15t-36 15t-15 36zM263 52q0 21 14.5 35.5t35.5 14.5
t36 -14.5t15 -35.5t-15 -36t-36 -15t-35.5 15t-14.5 36zM390 165q0 21 15 36t36 15t36 -15t15 -36t-15 -35.5t-36 -14.5t-36 14.5t-15 35.5zM522 276q0 21 14.5 36t35.5 15t36 -15t15 -36t-15 -36t-36 -15t-35.5 15t-14.5 36zM522 389q0 21 14.5 36t35.5 15t36 -15t15 -36
t-15 -35.5t-36 -14.5t-35.5 14.5t-14.5 35.5zM521 503q0 21 15 35.5t36 14.5t36 -14.5t15 -35.5t-15 -36t-36 -15t-36 15t-15 36zM521 616q0 21 15 35.5t36 14.5t35.5 -14.5t14.5 -35.5t-14.5 -36t-35.5 -15t-36 15t-15 36zM521 729q0 21 14.5 36t35.5 15t36 -15t15 -36
t-15 -36t-36 -15t-35.5 15t-14.5 36z" />
    <glyph glyph-name="W" unicode="W" horiz-adv-x="1038" 
d="M-2 164q0 21 15 36t36 15t35.5 -15t14.5 -36t-14.5 -35.5t-35.5 -14.5t-36 14.5t-15 35.5zM-2 277q0 21 14.5 36t35.5 15t36 -15t15 -36t-15 -35.5t-36 -14.5t-35.5 14.5t-14.5 35.5zM-3 391q0 21 15 35.5t36 14.5t36 -14.5t15 -35.5t-15 -36t-36 -15t-36 15t-15 36z
M-3 504q0 21 15 36t36 15t36 -15t15 -36t-15 -36t-36 -15t-36 15t-15 36zM-3 617q0 21 15 36t36 15t35.5 -15t14.5 -36t-14.5 -36t-35.5 -15t-36 15t-15 36zM-3 730q0 21 14.5 36t35.5 15t36 -15t15 -36t-15 -35.5t-36 -14.5t-35.5 14.5t-14.5 35.5zM129 49q0 21 15 35.5
t36 14.5t35.5 -14.5t14.5 -35.5t-14.5 -36t-35.5 -15t-36 15t-15 36zM263 52q0 21 14.5 35.5t35.5 14.5t36 -14.5t15 -35.5t-15 -36t-36 -15t-35.5 15t-14.5 36zM390 165q0 21 15 36t36 15t36 -15t15 -36t-15 -35.5t-36 -14.5t-36 14.5t-15 35.5zM390 278q0 21 15 36t36 15
t35.5 -15t14.5 -36t-14.5 -35.5t-35.5 -14.5t-36 14.5t-15 35.5zM390 392q0 21 14.5 35.5t35.5 14.5t36 -14.5t15 -35.5t-15 -36t-36 -15t-35.5 15t-14.5 36zM389 505q0 21 15 36t36 15t36 -15t15 -36t-15 -36t-36 -15t-36 15t-15 36zM389 618q0 21 15 36t36 15t36 -15
t15 -36t-15 -36t-36 -15t-36 15t-15 36zM389 731q0 21 15 36t36 15t35.5 -15t14.5 -36t-14.5 -35.5t-35.5 -14.5t-36 14.5t-15 35.5zM522 50q0 21 15 35.5t36 14.5t36 -14.5t15 -35.5t-15 -36t-36 -15t-36 15t-15 36zM653 50q0 21 15 36t36 15t35.5 -15t14.5 -36
t-14.5 -35.5t-35.5 -14.5t-36 14.5t-15 35.5zM784 166q0 21 14.5 36t35.5 15t36 -15t15 -36t-15 -35.5t-36 -14.5t-35.5 14.5t-14.5 35.5zM783 280q0 21 15 35.5t36 14.5t36 -14.5t15 -35.5t-15 -36t-36 -15t-36 15t-15 36zM783 393q0 21 15 35.5t36 14.5t35.5 -14.5
t14.5 -35.5t-14.5 -36t-35.5 -15t-36 15t-15 36zM783 506q0 21 15 36t36 15t35.5 -15t14.5 -36t-14.5 -36t-35.5 -15t-36 15t-15 36zM783 619q0 21 14.5 36t35.5 15t36 -15t15 -36t-15 -36t-36 -15t-35.5 15t-14.5 36zM782 732q0 21 15 36t36 15t36 -15t15 -36t-15 -35.5
t-36 -14.5t-36 14.5t-15 35.5z" />
    <glyph glyph-name="X" unicode="X" horiz-adv-x="774" 
d="M-2 51q0 21 15 36t36 15t36 -15t15 -36t-15 -36t-36 -15t-36 15t-15 36zM-2 164q0 21 15 36t36 15t35.5 -15t14.5 -36t-14.5 -35.5t-35.5 -14.5t-36 14.5t-15 35.5zM-3 617q0 21 15 36t36 15t35.5 -15t14.5 -36t-14.5 -36t-35.5 -15t-36 15t-15 36zM-3 730q0 21 14.5 36
t35.5 15t36 -15t15 -36t-15 -35.5t-36 -14.5t-35.5 14.5t-14.5 35.5zM129 275q0 21 14.5 36t35.5 15t36 -15t15 -36t-15 -35.5t-36 -14.5t-35.5 14.5t-14.5 35.5zM128 502q0 21 15 35.5t36 14.5t35.5 -14.5t14.5 -35.5t-14.5 -36t-35.5 -15t-36 15t-15 36zM262 391
q0 21 15 36t36 15t35.5 -15t14.5 -36t-14.5 -35.5t-35.5 -14.5t-36 14.5t-15 35.5zM390 278q0 21 15 36t36 15t35.5 -15t14.5 -36t-14.5 -35.5t-35.5 -14.5t-36 14.5t-15 35.5zM389 505q0 21 15 36t36 15t36 -15t15 -36t-15 -36t-36 -15t-36 15t-15 36zM522 50q0 21 15 35.5
t36 14.5t36 -14.5t15 -35.5t-15 -36t-36 -15t-36 15t-15 36zM522 163q0 21 15 36t36 15t35.5 -15t14.5 -36t-14.5 -36t-35.5 -15t-36 15t-15 36zM521 616q0 21 15 35.5t36 14.5t35.5 -14.5t14.5 -35.5t-14.5 -36t-35.5 -15t-36 15t-15 36zM521 729q0 21 14.5 36t35.5 15
t36 -15t15 -36t-15 -36t-36 -15t-35.5 15t-14.5 36z" />
    <glyph glyph-name="Y" unicode="Y" horiz-adv-x="748" 
d="M-3 504q0 21 15 36t36 15t36 -15t15 -36t-15 -36t-36 -15t-36 15t-15 36zM-3 617q0 21 15 36t36 15t35.5 -15t14.5 -36t-14.5 -36t-35.5 -15t-36 15t-15 36zM-3 730q0 21 14.5 36t35.5 15t36 -15t15 -36t-15 -35.5t-36 -14.5t-35.5 14.5t-14.5 35.5zM128 388q0 21 15 36
t36 15t36 -15t15 -36t-15 -35.5t-36 -14.5t-36 14.5t-15 35.5zM263 52q0 21 14.5 35.5t35.5 14.5t36 -14.5t15 -35.5t-15 -36t-36 -15t-35.5 15t-14.5 36zM262 165q0 21 15 36t36 15t36 -15t15 -36t-15 -36t-36 -15t-36 15t-15 36zM262 278q0 21 15 36t36 15t36 -15t15 -36
t-15 -36t-36 -15t-36 15t-15 36zM262 391q0 21 15 36t36 15t35.5 -15t14.5 -36t-14.5 -35.5t-35.5 -14.5t-36 14.5t-15 35.5zM390 392q0 21 14.5 35.5t35.5 14.5t36 -14.5t15 -35.5t-15 -36t-36 -15t-35.5 15t-14.5 36zM521 503q0 21 15 35.5t36 14.5t36 -14.5t15 -35.5
t-15 -36t-36 -15t-36 15t-15 36zM521 616q0 21 15 35.5t36 14.5t35.5 -14.5t14.5 -35.5t-14.5 -36t-35.5 -15t-36 15t-15 36zM521 729q0 21 14.5 36t35.5 15t36 -15t15 -36t-15 -36t-36 -15t-35.5 15t-14.5 36z" />
    <glyph glyph-name="Z" unicode="Z" horiz-adv-x="736" 
d="M-2 51q0 21 15 36t36 15t36 -15t15 -36t-15 -36t-36 -15t-36 15t-15 36zM-2 164q0 21 15 36t36 15t35.5 -15t14.5 -36t-14.5 -35.5t-35.5 -14.5t-36 14.5t-15 35.5zM-3 730q0 21 14.5 36t35.5 15t36 -15t15 -36t-15 -35.5t-36 -14.5t-35.5 14.5t-14.5 35.5zM129 49
q0 21 15 35.5t36 14.5t35.5 -14.5t14.5 -35.5t-14.5 -36t-35.5 -15t-36 15t-15 36zM129 275q0 21 14.5 36t35.5 15t36 -15t15 -36t-15 -35.5t-36 -14.5t-35.5 14.5t-14.5 35.5zM128 728q0 21 14.5 36t35.5 15t36 -15t15 -36t-15 -36t-36 -15t-35.5 15t-14.5 36zM263 52
q0 21 14.5 35.5t35.5 14.5t36 -14.5t15 -35.5t-15 -36t-36 -15t-35.5 15t-14.5 36zM262 391q0 21 15 36t36 15t35.5 -15t14.5 -36t-14.5 -35.5t-35.5 -14.5t-36 14.5t-15 35.5zM261 731q0 21 15 36t36 15t36 -15t15 -36t-15 -36t-36 -15t-36 15t-15 36zM391 52q0 21 14.5 36
t35.5 15t36 -15t15 -36t-15 -36t-36 -15t-35.5 15t-14.5 36zM389 505q0 21 15 36t36 15t36 -15t15 -36t-15 -36t-36 -15t-36 15t-15 36zM389 731q0 21 15 36t36 15t35.5 -15t14.5 -36t-14.5 -35.5t-35.5 -14.5t-36 14.5t-15 35.5zM522 50q0 21 15 35.5t36 14.5t36 -14.5
t15 -35.5t-15 -36t-36 -15t-36 15t-15 36zM521 616q0 21 15 35.5t36 14.5t35.5 -14.5t14.5 -35.5t-14.5 -36t-35.5 -15t-36 15t-15 36zM521 729q0 21 14.5 36t35.5 15t36 -15t15 -36t-15 -36t-36 -15t-35.5 15t-14.5 36z" />
    <glyph glyph-name="bracketleft" unicode="[" horiz-adv-x="374" 
d="M-2 164q0 21 15 36t36 15t35.5 -15t14.5 -36t-14.5 -35.5t-35.5 -14.5t-36 14.5t-15 35.5zM-2 277q0 21 14.5 36t35.5 15t36 -15t15 -36t-15 -35.5t-36 -14.5t-35.5 14.5t-14.5 35.5zM-3 391q0 21 15 35.5t36 14.5t36 -14.5t15 -35.5t-15 -36t-36 -15t-36 15t-15 36z
M-3 504q0 21 15 36t36 15t36 -15t15 -36t-15 -36t-36 -15t-36 15t-15 36zM-3 617q0 21 15 36t36 15t35.5 -15t14.5 -36t-14.5 -36t-35.5 -15t-36 15t-15 36zM129 49q0 21 15 35.5t36 14.5t35.5 -14.5t14.5 -35.5t-14.5 -36t-35.5 -15t-36 15t-15 36zM128 728q0 21 14.5 36
t35.5 15t36 -15t15 -36t-15 -36t-36 -15t-35.5 15t-14.5 36z" />
    <glyph glyph-name="backslash" unicode="\" horiz-adv-x="953" 
d="M882 51q0 21 -15 36t-36 15t-36 -15t-15 -36t15 -36t36 -15t36 15t15 36zM751 162q0 21 -15 36t-36 15t-35.5 -15t-14.5 -36t14.5 -36t35.5 -15t36 15t15 36zM618 278q0 21 -15 36t-36 15t-36 -15t-15 -36t15 -36t36 -15t36 15t15 36zM490 392q0 21 -14.5 35.5
t-35.5 14.5t-36 -14.5t-15 -35.5t15 -36t36 -15t35.5 15t14.5 36zM359 503q0 21 -15 35.5t-36 14.5t-36 -14.5t-15 -35.5t15 -36t36 -15t36 15t15 36zM228 616q0 21 -14.5 36t-35.5 15t-36 -15t-15 -36t15 -35.5t36 -14.5t35.5 14.5t14.5 35.5zM98 732q0 21 -15 36t-36 15
t-36 -15t-15 -36t15 -35.5t36 -14.5t36 14.5t15 35.5z" />
    <glyph glyph-name="bracketright" unicode="]" horiz-adv-x="373" 
d="M-2 51q0 21 15 36t36 15t36 -15t15 -36t-15 -36t-36 -15t-36 15t-15 36zM-3 730q0 21 14.5 36t35.5 15t36 -15t15 -36t-15 -35.5t-36 -14.5t-35.5 14.5t-14.5 35.5zM129 162q0 21 15 36t36 15t35.5 -15t14.5 -36t-14.5 -36t-35.5 -15t-36 15t-15 36zM129 275
q0 21 14.5 36t35.5 15t36 -15t15 -36t-15 -35.5t-36 -14.5t-35.5 14.5t-14.5 35.5zM128 388q0 21 15 36t36 15t36 -15t15 -36t-15 -35.5t-36 -14.5t-36 14.5t-15 35.5zM128 502q0 21 15 35.5t36 14.5t35.5 -14.5t14.5 -35.5t-14.5 -36t-35.5 -15t-36 15t-15 36zM128 615
q0 21 15 36t36 15t35.5 -15t14.5 -36t-14.5 -36t-35.5 -15t-36 15t-15 36z" />
    <glyph glyph-name="underscore" unicode="_" horiz-adv-x="863" 
d="M1 -64q0 21 15 36t36 15t36 -15t15 -36t-15 -36t-36 -15t-36 15t-15 36zM132 -66q0 21 15 35.5t36 14.5t35.5 -14.5t14.5 -35.5t-14.5 -36t-35.5 -15t-36 15t-15 36zM266 -63q0 21 14.5 35.5t35.5 14.5t36 -14.5t15 -35.5t-15 -36t-36 -15t-35.5 15t-14.5 36zM393 -63
q0 21 15 36t36 15t36 -15t15 -36q0 -23 -14 -37.5t-37 -13.5q-21 1 -36 15.5t-15 35.5zM525 -65q0 21 15 35.5t36 14.5t36 -14.5t15 -35.5t-15 -36t-36 -15t-36 15t-15 36zM656 -65q0 21 15 36t36 15t35.5 -15t14.5 -36t-14.5 -35.5t-35.5 -14.5t-36 14.5t-15 35.5zM787 -62
q0 21 15 36t36 15t35.5 -15t14.5 -36t-14.5 -36t-35.5 -15t-36 15t-15 36z" />
    <glyph glyph-name="a" unicode="a" horiz-adv-x="777" 
d="M-2 51q0 21 15 36t36 15t36 -15t15 -36t-15 -36t-36 -15t-36 15t-15 36zM-2 164q0 21 15 36t36 15t35.5 -15t14.5 -36t-14.5 -35.5t-35.5 -14.5t-36 14.5t-15 35.5zM-2 277q0 21 14.5 36t35.5 15t36 -15t15 -36t-15 -35.5t-36 -14.5t-35.5 14.5t-14.5 35.5zM-3 391
q0 21 15 35.5t36 14.5t36 -14.5t15 -35.5t-15 -36t-36 -15t-36 15t-15 36zM-3 504q0 21 15 36t36 15t36 -15t15 -36t-15 -36t-36 -15t-36 15t-15 36zM-3 617q0 21 15 36t36 15t35.5 -15t14.5 -36t-14.5 -36t-35.5 -15t-36 15t-15 36zM129 275q0 21 14.5 36t35.5 15t36 -15
t15 -36t-15 -35.5t-36 -14.5t-35.5 14.5t-14.5 35.5zM128 728q0 21 14.5 36t35.5 15t36 -15t15 -36t-15 -36t-36 -15t-35.5 15t-14.5 36zM262 278q0 21 15 36t36 15t36 -15t15 -36t-15 -36t-36 -15t-36 15t-15 36zM261 731q0 21 15 36t36 15t36 -15t15 -36t-15 -36t-36 -15
t-36 15t-15 36zM390 278q0 21 15 36t36 15t35.5 -15t14.5 -36t-14.5 -35.5t-35.5 -14.5t-36 14.5t-15 35.5zM389 731q0 21 15 36t36 15t35.5 -15t14.5 -36t-14.5 -35.5t-35.5 -14.5t-36 14.5t-15 35.5zM522 50q0 21 15 35.5t36 14.5t36 -14.5t15 -35.5t-15 -36t-36 -15
t-36 15t-15 36zM522 163q0 21 15 36t36 15t35.5 -15t14.5 -36t-14.5 -36t-35.5 -15t-36 15t-15 36zM522 276q0 21 14.5 36t35.5 15t36 -15t15 -36t-15 -36t-36 -15t-35.5 15t-14.5 36zM522 389q0 21 14.5 36t35.5 15t36 -15t15 -36t-15 -35.5t-36 -14.5t-35.5 14.5
t-14.5 35.5zM521 503q0 21 15 35.5t36 14.5t36 -14.5t15 -35.5t-15 -36t-36 -15t-36 15t-15 36zM521 616q0 21 15 35.5t36 14.5t35.5 -14.5t14.5 -35.5t-14.5 -36t-35.5 -15t-36 15t-15 36z" />
    <glyph glyph-name="b" unicode="b" horiz-adv-x="767" 
d="M-2 51q0 21 15 36t36 15t36 -15t15 -36t-15 -36t-36 -15t-36 15t-15 36zM-2 164q0 21 15 36t36 15t35.5 -15t14.5 -36t-14.5 -35.5t-35.5 -14.5t-36 14.5t-15 35.5zM-2 277q0 21 14.5 36t35.5 15t36 -15t15 -36t-15 -35.5t-36 -14.5t-35.5 14.5t-14.5 35.5zM-3 391
q0 21 15 35.5t36 14.5t36 -14.5t15 -35.5t-15 -36t-36 -15t-36 15t-15 36zM-3 504q0 21 15 36t36 15t36 -15t15 -36t-15 -36t-36 -15t-36 15t-15 36zM-3 617q0 21 15 36t36 15t35.5 -15t14.5 -36t-14.5 -36t-35.5 -15t-36 15t-15 36zM-3 730q0 21 14.5 36t35.5 15t36 -15
t15 -36t-15 -35.5t-36 -14.5t-35.5 14.5t-14.5 35.5zM129 49q0 21 15 35.5t36 14.5t35.5 -14.5t14.5 -35.5t-14.5 -36t-35.5 -15t-36 15t-15 36zM128 388q0 21 15 36t36 15t36 -15t15 -36t-15 -35.5t-36 -14.5t-36 14.5t-15 35.5zM128 728q0 21 14.5 36t35.5 15t36 -15
t15 -36t-15 -36t-36 -15t-35.5 15t-14.5 36zM263 52q0 21 14.5 35.5t35.5 14.5t36 -14.5t15 -35.5t-15 -36t-36 -15t-35.5 15t-14.5 36zM262 391q0 22 14.5 42.5t35.5 20.5t36 -20.5t15 -42.5q0 -21 -14.5 -35.5t-35.5 -14.5t-36 14.5t-15 35.5zM261 731q0 21 15 36t36 15
t36 -15t15 -36t-15 -36t-36 -15t-36 15t-15 36zM391 52q0 21 14.5 36t35.5 15t36 -15t15 -36t-15 -36t-36 -15t-35.5 15t-14.5 36zM390 392q0 21 14.5 35.5t35.5 14.5t36 -14.5t15 -35.5t-15 -36t-36 -15t-35.5 15t-14.5 36zM389 731q0 21 15 36t36 15t35.5 -15t14.5 -36
t-14.5 -35.5t-35.5 -14.5t-36 14.5t-15 35.5zM522 163q0 21 15 36t36 15t35.5 -15t14.5 -36t-14.5 -36t-35.5 -15t-36 15t-15 36zM522 276q0 21 14.5 36t35.5 15t36 -15t15 -36t-15 -36t-36 -15t-35.5 15t-14.5 36zM521 503q0 21 15 35.5t36 14.5t36 -14.5t15 -35.5t-15 -36
t-36 -15t-36 15t-15 36zM521 616q0 21 15 35.5t36 14.5t35.5 -14.5t14.5 -35.5t-14.5 -36t-35.5 -15t-36 15t-15 36z" />
    <glyph glyph-name="c" unicode="c" horiz-adv-x="719" 
d="M-2 164q0 21 15 36t36 15t35.5 -15t14.5 -36t-14.5 -35.5t-35.5 -14.5t-36 14.5t-15 35.5zM-2 277q0 21 14.5 36t35.5 15t36 -15t15 -36t-15 -35.5t-36 -14.5t-35.5 14.5t-14.5 35.5zM-3 391q0 21 15 35.5t36 14.5t36 -14.5t15 -35.5t-15 -36t-36 -15t-36 15t-15 36z
M-3 504q0 21 15 36t36 15t36 -15t15 -36t-15 -36t-36 -15t-36 15t-15 36zM-3 617q0 21 15 36t36 15t35.5 -15t14.5 -36t-14.5 -36t-35.5 -15t-36 15t-15 36zM129 49q0 21 15 35.5t36 14.5t35.5 -14.5t14.5 -35.5t-14.5 -36t-35.5 -15t-36 15t-15 36zM128 728q0 21 14.5 36
t35.5 15t36 -15t15 -36t-15 -36t-36 -15t-35.5 15t-14.5 36zM263 52q0 21 14.5 35.5t35.5 14.5t36 -14.5t15 -35.5t-15 -36t-36 -15t-35.5 15t-14.5 36zM261 731q0 21 15 36t36 15t36 -15t15 -36t-15 -36t-36 -15t-36 15t-15 36zM391 52q0 21 14.5 36t35.5 15t36 -15t15 -36
t-15 -36t-36 -15t-35.5 15t-14.5 36zM389 731q0 21 15 36t36 15t35.5 -15t14.5 -36t-14.5 -35.5t-35.5 -14.5t-36 14.5t-15 35.5zM522 163q0 21 15 36t36 15t35.5 -15t14.5 -36t-14.5 -36t-35.5 -15t-36 15t-15 36zM521 616q0 21 15 35.5t36 14.5t35.5 -14.5t14.5 -35.5
t-14.5 -36t-35.5 -15t-36 15t-15 36z" />
    <glyph glyph-name="d" unicode="d" horiz-adv-x="774" 
d="M-2 51q0 21 15 36t36 15t36 -15t15 -36t-15 -36t-36 -15t-36 15t-15 36zM-2 164q0 21 15 36t36 15t35.5 -15t14.5 -36t-14.5 -35.5t-35.5 -14.5t-36 14.5t-15 35.5zM-2 277q0 21 14.5 36t35.5 15t36 -15t15 -36t-15 -35.5t-36 -14.5t-35.5 14.5t-14.5 35.5zM-3 391
q0 21 15 35.5t36 14.5t36 -14.5t15 -35.5t-15 -36t-36 -15t-36 15t-15 36zM-3 504q0 21 15 36t36 15t36 -15t15 -36t-15 -36t-36 -15t-36 15t-15 36zM-3 617q0 21 15 36t36 15t35.5 -15t14.5 -36t-14.5 -36t-35.5 -15t-36 15t-15 36zM-3 730q0 21 14.5 36t35.5 15t36 -15
t15 -36t-15 -35.5t-36 -14.5t-35.5 14.5t-14.5 35.5zM129 49q0 21 15 35.5t36 14.5t35.5 -14.5t14.5 -35.5t-14.5 -36t-35.5 -15t-36 15t-15 36zM128 728q0 21 14.5 36t35.5 15t36 -15t15 -36t-15 -36t-36 -15t-35.5 15t-14.5 36zM263 52q0 21 14.5 35.5t35.5 14.5t36 -14.5
t15 -35.5t-15 -36t-36 -15t-35.5 15t-14.5 36zM261 731q0 21 15 36t36 15t36 -15t15 -36t-15 -36t-36 -15t-36 15t-15 36zM391 52q0 21 14.5 36t35.5 15t36 -15t15 -36t-15 -36t-36 -15t-35.5 15t-14.5 36zM389 731q0 21 15 36t36 15t35.5 -15t14.5 -36t-14.5 -35.5
t-35.5 -14.5t-36 14.5t-15 35.5zM522 163q0 21 15 36t36 15t35.5 -15t14.5 -36t-14.5 -36t-35.5 -15t-36 15t-15 36zM522 276q0 21 14.5 36t35.5 15t36 -15t15 -36t-15 -36t-36 -15t-35.5 15t-14.5 36zM522 389q0 21 14.5 36t35.5 15t36 -15t15 -36t-15 -35.5t-36 -14.5
t-35.5 14.5t-14.5 35.5zM521 503q0 21 15 35.5t36 14.5t36 -14.5t15 -35.5t-15 -36t-36 -15t-36 15t-15 36zM521 616q0 21 15 35.5t36 14.5t35.5 -14.5t14.5 -35.5t-14.5 -36t-35.5 -15t-36 15t-15 36z" />
    <glyph glyph-name="e" unicode="e" horiz-adv-x="724" 
d="M-2 51q0 21 15 36t36 15t36 -15t15 -36t-15 -36t-36 -15t-36 15t-15 36zM-2 164q0 21 15 36t36 15t35.5 -15t14.5 -36t-14.5 -35.5t-35.5 -14.5t-36 14.5t-15 35.5zM-2 277q0 21 14.5 36t35.5 15t36 -15t15 -36t-15 -35.5t-36 -14.5t-35.5 14.5t-14.5 35.5zM-3 391
q0 21 15 35.5t36 14.5t36 -14.5t15 -35.5t-15 -36t-36 -15t-36 15t-15 36zM-3 504q0 21 15 36t36 15t36 -15t15 -36t-15 -36t-36 -15t-36 15t-15 36zM-3 617q0 21 15 36t36 15t35.5 -15t14.5 -36t-14.5 -36t-35.5 -15t-36 15t-15 36zM-3 730q0 21 14.5 36t35.5 15t36 -15
t15 -36t-15 -35.5t-36 -14.5t-35.5 14.5t-14.5 35.5zM129 49q0 21 15 35.5t36 14.5t35.5 -14.5t14.5 -35.5t-14.5 -36t-35.5 -15t-36 15t-15 36zM128 388q0 21 15 36t36 15t36 -15t15 -36t-15 -35.5t-36 -14.5t-36 14.5t-15 35.5zM128 728q0 21 14.5 36t35.5 15t36 -15
t15 -36t-15 -36t-36 -15t-35.5 15t-14.5 36zM263 52q0 21 14.5 35.5t35.5 14.5t36 -14.5t15 -35.5t-15 -36t-36 -15t-35.5 15t-14.5 36zM262 391q0 21 15 36t36 15t35.5 -15t14.5 -36t-14.5 -35.5t-35.5 -14.5t-36 14.5t-15 35.5zM261 731q0 21 15 36t36 15t36 -15t15 -36
t-15 -36t-36 -15t-36 15t-15 36zM391 52q0 21 14.5 36t35.5 15t36 -15t15 -36t-15 -36t-36 -15t-35.5 15t-14.5 36zM390 392q0 21 14.5 35.5t35.5 14.5t36 -14.5t15 -35.5t-15 -36t-36 -15t-35.5 15t-14.5 36zM389 731q0 21 15 36t36 15t35.5 -15t14.5 -36t-14.5 -35.5
t-35.5 -14.5t-36 14.5t-15 35.5zM522 50q0 21 15 35.5t36 14.5t36 -14.5t15 -35.5t-15 -36t-36 -15t-36 15t-15 36zM522 389q0 21 14.5 36t35.5 15t36 -15t15 -36t-15 -35.5t-36 -14.5t-35.5 14.5t-14.5 35.5zM521 729q0 21 14.5 36t35.5 15t36 -15t15 -36t-15 -36t-36 -15
t-35.5 15t-14.5 36z" />
    <glyph glyph-name="f" unicode="f" horiz-adv-x="720" 
d="M-2 51q0 21 15 36t36 15t36 -15t15 -36t-15 -36t-36 -15t-36 15t-15 36zM-2 164q0 21 15 36t36 15t35.5 -15t14.5 -36t-14.5 -35.5t-35.5 -14.5t-36 14.5t-15 35.5zM-2 277q0 21 14.5 36t35.5 15t36 -15t15 -36t-15 -35.5t-36 -14.5t-35.5 14.5t-14.5 35.5zM-3 391
q0 21 15 35.5t36 14.5t36 -14.5t15 -35.5t-15 -36t-36 -15t-36 15t-15 36zM-3 504q0 21 15 36t36 15t36 -15t15 -36t-15 -36t-36 -15t-36 15t-15 36zM-3 617q0 21 15 36t36 15t35.5 -15t14.5 -36t-14.5 -36t-35.5 -15t-36 15t-15 36zM-3 730q0 21 14.5 36t35.5 15t36 -15
t15 -36t-15 -35.5t-36 -14.5t-35.5 14.5t-14.5 35.5zM128 388q0 21 15 36t36 15t36 -15t15 -36t-15 -35.5t-36 -14.5t-36 14.5t-15 35.5zM128 728q0 21 14.5 36t35.5 15t36 -15t15 -36t-15 -36t-36 -15t-35.5 15t-14.5 36zM262 391q0 21 15 36t36 15t35.5 -15t14.5 -36
t-14.5 -35.5t-35.5 -14.5t-36 14.5t-15 35.5zM261 731q0 21 15 36t36 15t36 -15t15 -36t-15 -36t-36 -15t-36 15t-15 36zM390 392q0 21 14.5 35.5t35.5 14.5t36 -14.5t15 -35.5t-15 -36t-36 -15t-35.5 15t-14.5 36zM389 731q0 21 15 36t36 15t35.5 -15t14.5 -36t-14.5 -35.5
t-35.5 -14.5t-36 14.5t-15 35.5zM522 389q0 21 14.5 36t35.5 15t36 -15t15 -36t-15 -35.5t-36 -14.5t-35.5 14.5t-14.5 35.5zM521 729q0 21 14.5 36t35.5 15t36 -15t15 -36t-15 -36t-36 -15t-35.5 15t-14.5 36z" />
    <glyph glyph-name="g" unicode="g" horiz-adv-x="760" 
d="M-2 164q0 21 15 36t36 15t35.5 -15t14.5 -36t-14.5 -35.5t-35.5 -14.5t-36 14.5t-15 35.5zM-2 277q0 21 14.5 36t35.5 15t36 -15t15 -36t-15 -35.5t-36 -14.5t-35.5 14.5t-14.5 35.5zM-3 391q0 21 15 35.5t36 14.5t36 -14.5t15 -35.5t-15 -36t-36 -15t-36 15t-15 36z
M-3 504q0 21 15 36t36 15t36 -15t15 -36t-15 -36t-36 -15t-36 15t-15 36zM-3 617q0 21 15 36t36 15t35.5 -15t14.5 -36t-14.5 -36t-35.5 -15t-36 15t-15 36zM129 49q0 21 15 35.5t36 14.5t35.5 -14.5t14.5 -35.5t-14.5 -36t-35.5 -15t-36 15t-15 36zM128 728q0 21 14.5 36
t35.5 15t36 -15t15 -36t-15 -36t-36 -15t-35.5 15t-14.5 36zM263 52q0 21 14.5 35.5t35.5 14.5t36 -14.5t15 -35.5t-15 -36t-36 -15t-35.5 15t-14.5 36zM261 731q0 21 15 36t36 15t36 -15t15 -36t-15 -36t-36 -15t-36 15t-15 36zM391 52q0 21 14.5 36t35.5 15t36 -15t15 -36
t-15 -36t-36 -15t-35.5 15t-14.5 36zM390 392q0 21 14.5 35.5t35.5 14.5t36 -14.5t15 -35.5t-15 -36t-36 -15t-35.5 15t-14.5 36zM389 731q0 21 15 36t36 15t35.5 -15t14.5 -36t-14.5 -35.5t-35.5 -14.5t-36 14.5t-15 35.5zM522 163q0 21 15 36t36 15t35.5 -15t14.5 -36
t-14.5 -36t-35.5 -15t-36 15t-15 36zM522 276q0 21 14.5 36t35.5 15t36 -15t15 -36t-15 -36t-36 -15t-35.5 15t-14.5 36zM522 389q0 21 14.5 36t35.5 15t36 -15t15 -36t-15 -35.5t-36 -14.5t-35.5 14.5t-14.5 35.5zM521 616q0 21 15 35.5t36 14.5t35.5 -14.5t14.5 -35.5
t-14.5 -36t-35.5 -15t-36 15t-15 36z" />
    <glyph glyph-name="h" unicode="h" horiz-adv-x="774" 
d="M-2 51q0 21 15 36t36 15t36 -15t15 -36t-15 -36t-36 -15t-36 15t-15 36zM-2 164q0 21 15 36t36 15t35.5 -15t14.5 -36t-14.5 -35.5t-35.5 -14.5t-36 14.5t-15 35.5zM-2 277q0 21 14.5 36t35.5 15t36 -15t15 -36t-15 -35.5t-36 -14.5t-35.5 14.5t-14.5 35.5zM-3 391
q0 21 15 35.5t36 14.5t36 -14.5t15 -35.5t-15 -36t-36 -15t-36 15t-15 36zM-3 504q0 21 15 36t36 15t36 -15t15 -36t-15 -36t-36 -15t-36 15t-15 36zM-3 617q0 21 15 36t36 15t35.5 -15t14.5 -36t-14.5 -36t-35.5 -15t-36 15t-15 36zM-3 730q0 21 14.5 36t35.5 15t36 -15
t15 -36t-15 -35.5t-36 -14.5t-35.5 14.5t-14.5 35.5zM128 388q0 21 15 36t36 15t36 -15t15 -36t-15 -35.5t-36 -14.5t-36 14.5t-15 35.5zM262 391q0 21 15 36t36 15t35.5 -15t14.5 -36t-14.5 -35.5t-35.5 -14.5t-36 14.5t-15 35.5zM390 392q0 21 14.5 35.5t35.5 14.5
t36 -14.5t15 -35.5t-15 -36t-36 -15t-35.5 15t-14.5 36zM522 50q0 21 15 35.5t36 14.5t36 -14.5t15 -35.5t-15 -36t-36 -15t-36 15t-15 36zM522 163q0 21 15 36t36 15t35.5 -15t14.5 -36t-14.5 -36t-35.5 -15t-36 15t-15 36zM522 276q0 21 14.5 36t35.5 15t36 -15t15 -36
t-15 -36t-36 -15t-35.5 15t-14.5 36zM522 389q0 21 14.5 36t35.5 15t36 -15t15 -36t-15 -35.5t-36 -14.5t-35.5 14.5t-14.5 35.5zM521 503q0 21 15 35.5t36 14.5t36 -14.5t15 -35.5t-15 -36t-36 -15t-36 15t-15 36zM521 616q0 21 15 35.5t36 14.5t35.5 -14.5t14.5 -35.5
t-14.5 -36t-35.5 -15t-36 15t-15 36zM521 729q0 21 14.5 36t35.5 15t36 -15t15 -36t-15 -36t-36 -15t-35.5 15t-14.5 36z" />
    <glyph glyph-name="i" unicode="i" horiz-adv-x="250" 
d="M-2 51q0 21 15 36t36 15t36 -15t15 -36t-15 -36t-36 -15t-36 15t-15 36zM-2 164q0 21 15 36t36 15t35.5 -15t14.5 -36t-14.5 -35.5t-35.5 -14.5t-36 14.5t-15 35.5zM-2 277q0 21 14.5 36t35.5 15t36 -15t15 -36t-15 -35.5t-36 -14.5t-35.5 14.5t-14.5 35.5zM-3 391
q0 21 15 35.5t36 14.5t36 -14.5t15 -35.5t-15 -36t-36 -15t-36 15t-15 36zM-3 504q0 21 15 36t36 15t36 -15t15 -36t-15 -36t-36 -15t-36 15t-15 36zM-3 617q0 21 15 36t36 15t35.5 -15t14.5 -36t-14.5 -36t-35.5 -15t-36 15t-15 36zM-3 730q0 21 14.5 36t35.5 15t36 -15
t15 -36t-15 -35.5t-36 -14.5t-35.5 14.5t-14.5 35.5z" />
    <glyph glyph-name="j" unicode="j" horiz-adv-x="777" 
d="M-2 164q0 21 15 36t36 15t35.5 -15t14.5 -36t-14.5 -35.5t-35.5 -14.5t-36 14.5t-15 35.5zM-2 277q0 21 14.5 36t35.5 15t36 -15t15 -36t-15 -35.5t-36 -14.5t-35.5 14.5t-14.5 35.5zM129 49q0 21 15 35.5t36 14.5t35.5 -14.5t14.5 -35.5t-14.5 -36t-35.5 -15t-36 15
t-15 36zM180 111zM263 52q0 21 14.5 35.5t35.5 14.5t36 -14.5t15 -35.5t-15 -36t-36 -15t-35.5 15t-14.5 36zM313 114zM391 52q0 21 14.5 36t35.5 15t36 -15t15 -36t-15 -36t-36 -15t-35.5 15t-14.5 36zM441 115zM522 163q0 21 15 36t36 15t35.5 -15t14.5 -36t-14.5 -36
t-35.5 -15t-36 15t-15 36zM522 276q0 21 14.5 36t35.5 15t36 -15t15 -36t-15 -36t-36 -15t-35.5 15t-14.5 36zM522 389q0 21 14.5 36t35.5 15t36 -15t15 -36t-15 -35.5t-36 -14.5t-35.5 14.5t-14.5 35.5zM521 503q0 21 15 35.5t36 14.5t36 -14.5t15 -35.5t-15 -36t-36 -15
t-36 15t-15 36zM521 616q0 21 15 35.5t36 14.5t35.5 -14.5t14.5 -35.5t-14.5 -36t-35.5 -15t-36 15t-15 36zM521 729q0 21 14.5 36t35.5 15t36 -15t15 -36t-15 -36t-36 -15t-35.5 15t-14.5 36z" />
    <glyph glyph-name="k" unicode="k" horiz-adv-x="778" 
d="M-2 51q0 21 15 36t36 15t36 -15t15 -36t-15 -36t-36 -15t-36 15t-15 36zM-2 164q0 21 15 36t36 15t35.5 -15t14.5 -36t-14.5 -35.5t-35.5 -14.5t-36 14.5t-15 35.5zM-2 277q0 21 14.5 36t35.5 15t36 -15t15 -36t-15 -35.5t-36 -14.5t-35.5 14.5t-14.5 35.5zM-3 391
q0 21 15 35.5t36 14.5t36 -14.5t15 -35.5t-15 -36t-36 -15t-36 15t-15 36zM-3 504q0 21 15 36t36 15t36 -15t15 -36t-15 -36t-36 -15t-36 15t-15 36zM-3 617q0 21 15 36t36 15t35.5 -15t14.5 -36t-14.5 -36t-35.5 -15t-36 15t-15 36zM-3 730q0 21 14.5 36t35.5 15t36 -15
t15 -36t-15 -35.5t-36 -14.5t-35.5 14.5t-14.5 35.5zM128 388q0 21 15 36t36 15t36 -15t15 -36t-15 -35.5t-36 -14.5t-36 14.5t-15 35.5zM262 391q0 21 15 36t36 15t35.5 -15t14.5 -36t-14.5 -35.5t-35.5 -14.5t-36 14.5t-15 35.5zM522 50q0 21 15 35.5t36 14.5t36 -14.5
t15 -35.5t-15 -36t-36 -15t-36 15t-15 36zM522 163q0 21 15 36t36 15t35.5 -15t14.5 -36t-14.5 -36t-35.5 -15t-36 15t-15 36zM392 276q0 21 14.5 36t35.5 15t36 -15t15 -36t-15 -36t-36 -15t-35.5 15t-14.5 36zM391 503q0 21 15 35.5t36 14.5t36 -14.5t15 -35.5t-15 -36
t-36 -15t-36 15t-15 36zM521 616q0 21 15 35.5t36 14.5t35.5 -14.5t14.5 -35.5t-14.5 -36t-35.5 -15t-36 15t-15 36zM521 729q0 21 14.5 36t35.5 15t36 -15t15 -36t-15 -36t-36 -15t-35.5 15t-14.5 36z" />
    <glyph glyph-name="l" unicode="l" horiz-adv-x="686" 
d="M-2 51q0 21 15 36t36 15t36 -15t15 -36t-15 -36t-36 -15t-36 15t-15 36zM-2 164q0 21 15 36t36 15t35.5 -15t14.5 -36t-14.5 -35.5t-35.5 -14.5t-36 14.5t-15 35.5zM-2 277q0 21 14.5 36t35.5 15t36 -15t15 -36t-15 -35.5t-36 -14.5t-35.5 14.5t-14.5 35.5zM-3 391
q0 21 15 35.5t36 14.5t36 -14.5t15 -35.5t-15 -36t-36 -15t-36 15t-15 36zM-3 504q0 21 15 36t36 15t36 -15t15 -36t-15 -36t-36 -15t-36 15t-15 36zM-3 617q0 21 15 36t36 15t35.5 -15t14.5 -36t-14.5 -36t-35.5 -15t-36 15t-15 36zM-3 730q0 21 14.5 36t35.5 15t36 -15
t15 -36t-15 -35.5t-36 -14.5t-35.5 14.5t-14.5 35.5zM129 49q0 21 15 35.5t36 14.5t35.5 -14.5t14.5 -35.5t-14.5 -36t-35.5 -15t-36 15t-15 36zM263 52q0 21 14.5 35.5t35.5 14.5t36 -14.5t15 -35.5t-15 -36t-36 -15t-35.5 15t-14.5 36zM391 52q0 21 14.5 36t35.5 15
t36 -15t15 -36t-15 -36t-36 -15t-35.5 15t-14.5 36zM522 50q0 21 15 35.5t36 14.5t36 -14.5t15 -35.5t-15 -36t-36 -15t-36 15t-15 36z" />
    <glyph glyph-name="m" unicode="m" horiz-adv-x="1035" 
d="M-2 164q0 21 15 36t36 15t35.5 -15t14.5 -36t-14.5 -35.5t-35.5 -14.5t-36 14.5t-15 35.5zM-2 277q0 21 14.5 36t35.5 15t36 -15t15 -36t-15 -35.5t-36 -14.5t-35.5 14.5t-14.5 35.5zM-3 391q0 21 15 35.5t36 14.5t36 -14.5t15 -35.5t-15 -36t-36 -15t-36 15t-15 36z
M-3 504q0 21 15 36t36 15t36 -15t15 -36t-15 -36t-36 -15t-36 15t-15 36zM-3 617q0 21 15 36t36 15t35.5 -15t14.5 -36t-14.5 -36t-35.5 -15t-36 15t-15 36zM-3 730q0 21 14.5 36t35.5 15t36 -15t15 -36t-15 -35.5t-36 -14.5t-35.5 14.5t-14.5 35.5zM179 552zM128 615
q0 21 15 36t36 15t35.5 -15t14.5 -36t-14.5 -36t-35.5 -15t-36 15t-15 36zM262 505q0 21 14.5 35.5t35.5 14.5t36 -14.5t15 -35.5t-15 -36t-36 -15t-35.5 15t-14.5 36zM390 392q0 21 14.5 35.5t35.5 14.5t36 -14.5t15 -35.5t-15 -36t-36 -15t-35.5 15t-14.5 36zM521 503
q0 21 15 35.5t36 14.5t36 -14.5t15 -35.5t-15 -36t-36 -15t-36 15t-15 36zM652 616q0 21 14.5 36t35.5 15t36 -15t15 -36t-15 -35.5t-36 -14.5t-35.5 14.5t-14.5 35.5zM784 53q0 21 15 36t36 15t35.5 -15t14.5 -36t-14.5 -36t-35.5 -15t-36 15t-15 36zM784 166q0 21 14.5 36
t35.5 15t36 -15t15 -36t-15 -35.5t-36 -14.5t-35.5 14.5t-14.5 35.5zM783 280q0 21 15 35.5t36 14.5t36 -14.5t15 -35.5t-15 -36t-36 -15t-36 15t-15 36zM783 393q0 21 15 35.5t36 14.5t35.5 -14.5t14.5 -35.5t-14.5 -36t-35.5 -15t-36 15t-15 36zM783 506q0 21 15 36t36 15
t35.5 -15t14.5 -36t-14.5 -36t-35.5 -15t-36 15t-15 36zM783 619q0 21 14.5 36t35.5 15t36 -15t15 -36t-15 -36t-36 -15t-35.5 15t-14.5 36zM782 732q0 21 15 36t36 15t36 -15t15 -36t-15 -35.5t-36 -14.5t-36 14.5t-15 35.5zM48 0q-20 0 -35 15t-15 36t15 36t36 15t36 -15
t15 -36t-15 -36t-37 -15z" />
    <glyph glyph-name="n" unicode="n" horiz-adv-x="774" 
d="M-2 51q0 21 15 36t36 15t36 -15t15 -36t-15 -36t-36 -15t-36 15t-15 36zM-2 164q0 21 15 36t36 15t35.5 -15t14.5 -36t-14.5 -35.5t-35.5 -14.5t-36 14.5t-15 35.5zM-2 277q0 21 14.5 36t35.5 15t36 -15t15 -36t-15 -35.5t-36 -14.5t-35.5 14.5t-14.5 35.5zM-3 391
q0 21 15 35.5t36 14.5t36 -14.5t15 -35.5t-15 -36t-36 -15t-36 15t-15 36zM-3 504q0 21 15 36t36 15t36 -15t15 -36t-15 -36t-36 -15t-36 15t-15 36zM-3 617q0 21 15 36t36 15t35.5 -15t14.5 -36t-14.5 -36t-35.5 -15t-36 15t-15 36zM-3 730q0 21 14.5 36t35.5 15t36 -15
t15 -36t-15 -35.5t-36 -14.5t-35.5 14.5t-14.5 35.5zM128 502q0 21 15 35.5t36 14.5t35.5 -14.5t14.5 -35.5t-14.5 -36t-35.5 -15t-36 15t-15 36zM262 391q0 21 15 36t36 15t35.5 -15t14.5 -36t-14.5 -35.5t-35.5 -14.5t-36 14.5t-15 35.5zM390 278q0 21 15 36t36 15
t35.5 -15t14.5 -36t-14.5 -35.5t-35.5 -14.5t-36 14.5t-15 35.5zM522 50q0 21 15 35.5t36 14.5t36 -14.5t15 -35.5t-15 -36t-36 -15t-36 15t-15 36zM522 163q0 21 15 36t36 15t35.5 -15t14.5 -36t-14.5 -36t-35.5 -15t-36 15t-15 36zM522 276q0 21 14.5 36t35.5 15t36 -15
t15 -36t-15 -36t-36 -15t-35.5 15t-14.5 36zM522 389q0 21 14.5 36t35.5 15t36 -15t15 -36t-15 -35.5t-36 -14.5t-35.5 14.5t-14.5 35.5zM521 503q0 21 15 35.5t36 14.5t36 -14.5t15 -35.5t-15 -36t-36 -15t-36 15t-15 36zM521 616q0 21 15 35.5t36 14.5t35.5 -14.5
t14.5 -35.5t-14.5 -36t-35.5 -15t-36 15t-15 36zM521 729q0 21 14.5 36t35.5 15t36 -15t15 -36t-15 -36t-36 -15t-35.5 15t-14.5 36z" />
    <glyph glyph-name="o" unicode="o" horiz-adv-x="774" 
d="M-2 164q0 21 15 36t36 15t35.5 -15t14.5 -36t-14.5 -35.5t-35.5 -14.5t-36 14.5t-15 35.5zM-2 277q0 21 14.5 36t35.5 15t36 -15t15 -36t-15 -35.5t-36 -14.5t-35.5 14.5t-14.5 35.5zM-3 391q0 21 15 35.5t36 14.5t36 -14.5t15 -35.5t-15 -36t-36 -15t-36 15t-15 36z
M-3 504q0 21 15 36t36 15t36 -15t15 -36t-15 -36t-36 -15t-36 15t-15 36zM-3 617q0 21 15 36t36 15t35.5 -15t14.5 -36t-14.5 -36t-35.5 -15t-36 15t-15 36zM129 49q0 21 15 35.5t36 14.5t35.5 -14.5t14.5 -35.5t-14.5 -36t-35.5 -15t-36 15t-15 36zM128 728q0 21 14.5 36
t35.5 15t36 -15t15 -36t-15 -36t-36 -15t-35.5 15t-14.5 36zM263 52q0 21 14.5 35.5t35.5 14.5t36 -14.5t15 -35.5t-15 -36t-36 -15t-35.5 15t-14.5 36zM261 731q0 21 15 36t36 15t36 -15t15 -36t-15 -36t-36 -15t-36 15t-15 36zM391 52q0 21 14.5 36t35.5 15t36 -15t15 -36
t-15 -36t-36 -15t-35.5 15t-14.5 36zM389 731q0 21 15 36t36 15t35.5 -15t14.5 -36t-14.5 -35.5t-35.5 -14.5t-36 14.5t-15 35.5zM522 163q0 21 15 36t36 15t35.5 -15t14.5 -36t-14.5 -36t-35.5 -15t-36 15t-15 36zM522 276q0 21 14.5 36t35.5 15t36 -15t15 -36t-15 -36
t-36 -15t-35.5 15t-14.5 36zM522 389q0 21 14.5 36t35.5 15t36 -15t15 -36t-15 -35.5t-36 -14.5t-35.5 14.5t-14.5 35.5zM521 503q0 21 15 35.5t36 14.5t36 -14.5t15 -35.5t-15 -36t-36 -15t-36 15t-15 36zM521 616q0 21 15 35.5t36 14.5t35.5 -14.5t14.5 -35.5t-14.5 -36
t-35.5 -15t-36 15t-15 36z" />
    <glyph glyph-name="p" unicode="p" horiz-adv-x="726" 
d="M-2 51q0 21 15 36t36 15t36 -15t15 -36t-15 -36t-36 -15t-36 15t-15 36zM-2 164q0 21 15 36t36 15t35.5 -15t14.5 -36t-14.5 -35.5t-35.5 -14.5t-36 14.5t-15 35.5zM-2 277q0 21 14.5 36t35.5 15t36 -15t15 -36t-15 -35.5t-36 -14.5t-35.5 14.5t-14.5 35.5zM-3 391
q0 21 15 35.5t36 14.5t36 -14.5t15 -35.5t-15 -36t-36 -15t-36 15t-15 36zM-3 504q0 21 15 36t36 15t36 -15t15 -36t-15 -36t-36 -15t-36 15t-15 36zM-3 617q0 21 15 36t36 15t35.5 -15t14.5 -36t-14.5 -36t-35.5 -15t-36 15t-15 36zM-3 730q0 21 14.5 36t35.5 15t36 -15
t15 -36t-15 -35.5t-36 -14.5t-35.5 14.5t-14.5 35.5zM128 388q0 21 15 36t36 15t36 -15t15 -36t-15 -35.5t-36 -14.5t-36 14.5t-15 35.5zM128 728q0 21 14.5 36t35.5 15t36 -15t15 -36t-15 -36t-36 -15t-35.5 15t-14.5 36zM262 391q0 21 15 36t36 15t35.5 -15t14.5 -36
t-14.5 -35.5t-35.5 -14.5t-36 14.5t-15 35.5zM261 731q0 21 15 36t36 15t36 -15t15 -36t-15 -36t-36 -15t-36 15t-15 36zM390 392q0 21 14.5 35.5t35.5 14.5t36 -14.5t15 -35.5t-15 -36t-36 -15t-35.5 15t-14.5 36zM389 731q0 21 15 36t36 15t35.5 -15t14.5 -36t-14.5 -35.5
t-35.5 -14.5t-36 14.5t-15 35.5zM521 503q0 21 15 35.5t36 14.5t36 -14.5t15 -35.5t-15 -36t-36 -15t-36 15t-15 36zM521 616q0 21 15 35.5t36 14.5t35.5 -14.5t14.5 -35.5t-14.5 -36t-35.5 -15t-36 15t-15 36z" />
    <glyph glyph-name="q" unicode="q" horiz-adv-x="775" 
d="M49 102zM-2 164q0 21 15 36t36 15t35.5 -15t14.5 -36t-14.5 -35.5t-35.5 -14.5t-36 14.5t-15 35.5zM-2 277q0 21 14.5 36t35.5 15t36 -15t15 -36t-15 -35.5t-36 -14.5t-35.5 14.5t-14.5 35.5zM-3 391q0 21 15 35.5t36 14.5t36 -14.5t15 -35.5t-15 -36t-36 -15t-36 15
t-15 36zM-3 504q0 21 15 36t36 15t36 -15t15 -36t-15 -36t-36 -15t-36 15t-15 36zM-3 617q0 21 15 36t36 15t35.5 -15t14.5 -36t-14.5 -36t-35.5 -15t-36 15t-15 36zM129 49q0 21 15 35.5t36 14.5t35.5 -14.5t14.5 -35.5t-14.5 -36t-35.5 -15t-36 15t-15 36zM128 728
q0 21 14.5 36t35.5 15t36 -15t15 -36t-15 -36t-36 -15t-35.5 15t-14.5 36zM263 52q0 21 14.5 35.5t35.5 14.5t36 -14.5t15 -35.5t-15 -36t-36 -15t-35.5 15t-14.5 36zM261 731q0 21 15 36t36 15t36 -15t15 -36t-15 -36t-36 -15t-36 15t-15 36zM391 52q0 21 14.5 36t35.5 15
t36 -15t15 -36t-15 -36t-36 -15t-35.5 15t-14.5 36zM389 731q0 21 15 36t36 15t35.5 -15t14.5 -36t-14.5 -35.5t-35.5 -14.5t-36 14.5t-15 35.5zM522 163q0 21 15 36t36 15t35.5 -15t14.5 -36t-14.5 -36t-35.5 -15t-36 15t-15 36zM522 276q0 21 14.5 36t35.5 15t36 -15
t15 -36t-15 -36t-36 -15t-35.5 15t-14.5 36zM522 389q0 21 14.5 36t35.5 15t36 -15t15 -36t-15 -35.5t-36 -14.5t-35.5 14.5t-14.5 35.5zM521 503q0 21 15 35.5t36 14.5t36 -14.5t15 -35.5t-15 -36t-36 -15t-36 15t-15 36zM521 616q0 21 15 35.5t36 14.5t35.5 -14.5
t14.5 -35.5t-14.5 -36t-35.5 -15t-36 15t-15 36zM462 -51q0 21 15 36t36 15t35.5 -15t14.5 -36t-14.5 -36t-35.5 -15t-36 15t-15 36z" />
    <glyph glyph-name="r" unicode="r" horiz-adv-x="776" 
d="M-2 51q0 21 15 36t36 15t36 -15t15 -36t-15 -36t-36 -15t-36 15t-15 36zM-2 164q0 21 15 36t36 15t35.5 -15t14.5 -36t-14.5 -35.5t-35.5 -14.5t-36 14.5t-15 35.5zM-2 277q0 21 14.5 36t35.5 15t36 -15t15 -36t-15 -35.5t-36 -14.5t-35.5 14.5t-14.5 35.5zM-3 391
q0 21 15 35.5t36 14.5t36 -14.5t15 -35.5t-15 -36t-36 -15t-36 15t-15 36zM-3 504q0 21 15 36t36 15t36 -15t15 -36t-15 -36t-36 -15t-36 15t-15 36zM-3 617q0 21 15 36t36 15t35.5 -15t14.5 -36t-14.5 -36t-35.5 -15t-36 15t-15 36zM-3 730q0 21 14.5 36t35.5 15t36 -15
t15 -36t-15 -35.5t-36 -14.5t-35.5 14.5t-14.5 35.5zM128 388q0 21 15 36t36 15t36 -15t15 -36t-15 -35.5t-36 -14.5t-36 14.5t-15 35.5zM179 666zM128 728q0 21 14.5 36t35.5 15t36 -15t15 -36t-15 -36t-36 -15t-35.5 15t-14.5 36zM262 391q0 21 15 36t36 15t35.5 -15
t14.5 -36t-14.5 -35.5t-35.5 -14.5t-36 14.5t-15 35.5zM312 668zM261 731q0 21 15 36t36 15t36 -15t15 -36t-15 -36t-36 -15t-36 15t-15 36zM390 392q0 21 14.5 35.5t35.5 14.5t36 -14.5t15 -35.5t-15 -36t-36 -15t-35.5 15t-14.5 36zM440 669zM389 731q0 21 15 36t36 15
t35.5 -15t14.5 -36t-14.5 -35.5t-35.5 -14.5t-36 14.5t-15 35.5zM522 50q0 21 15 35.5t36 14.5t36 -14.5t15 -35.5t-15 -36t-36 -15t-36 15t-15 36zM522 163q0 21 15 36t36 15t35.5 -15t14.5 -36t-14.5 -36t-35.5 -15t-36 15t-15 36zM522 276q0 21 14.5 36t35.5 15t36 -15
t15 -36t-15 -36t-36 -15t-35.5 15t-14.5 36zM521 503q0 21 15 35.5t36 14.5t36 -14.5t15 -35.5t-15 -36t-36 -15t-36 15t-15 36zM521 616q0 21 15 35.5t36 14.5t35.5 -14.5t14.5 -35.5t-14.5 -36t-35.5 -15t-36 15t-15 36z" />
    <glyph glyph-name="s" unicode="s" horiz-adv-x="759" 
d="M-2 164q0 21 15 36t36 15t35.5 -15t14.5 -36t-14.5 -35.5t-35.5 -14.5t-36 14.5t-15 35.5zM-3 504q0 21 15 36t36 15t36 -15t15 -36t-15 -36t-36 -15t-36 15t-15 36zM-3 617q0 21 15 36t36 15t35.5 -15t14.5 -36t-14.5 -36t-35.5 -15t-36 15t-15 36zM129 49q0 21 15 35.5
t36 14.5t35.5 -14.5t14.5 -35.5t-14.5 -36t-35.5 -15t-36 15t-15 36zM128 388q0 21 15 36t36 15t36 -15t15 -36t-15 -35.5t-36 -14.5t-36 14.5t-15 35.5zM128 728q0 21 14.5 36t35.5 15t36 -15t15 -36t-15 -36t-36 -15t-35.5 15t-14.5 36zM263 52q0 21 14.5 35.5t35.5 14.5
t36 -14.5t15 -35.5t-15 -36t-36 -15t-35.5 15t-14.5 36zM262 391q0 21 15 36t36 15t35.5 -15t14.5 -36t-14.5 -35.5t-35.5 -14.5t-36 14.5t-15 35.5zM261 731q0 21 15 36t36 15t36 -15t15 -36t-15 -36t-36 -15t-36 15t-15 36zM391 52q0 21 14.5 36t35.5 15t36 -15t15 -36
t-15 -36t-36 -15t-35.5 15t-14.5 36zM390 392q0 21 14.5 35.5t35.5 14.5t36 -14.5t15 -35.5t-15 -36t-36 -15t-35.5 15t-14.5 36zM389 731q0 21 15 36t36 15t35.5 -15t14.5 -36t-14.5 -35.5t-35.5 -14.5t-36 14.5t-15 35.5zM522 163q0 21 15 36t36 15t35.5 -15t14.5 -36
t-14.5 -36t-35.5 -15t-36 15t-15 36zM522 276q0 21 14.5 36t35.5 15t36 -15t15 -36t-15 -36t-36 -15t-35.5 15t-14.5 36zM521 616q0 21 15 35.5t36 14.5t35.5 -14.5t14.5 -35.5t-14.5 -36t-35.5 -15t-36 15t-15 36z" />
    <glyph glyph-name="t" unicode="t" horiz-adv-x="747" 
d="M-3 730q0 21 14.5 36t35.5 15t36 -15t15 -36t-15 -35.5t-36 -14.5t-35.5 14.5t-14.5 35.5zM128 728q0 21 14.5 36t35.5 15t36 -15t15 -36t-15 -36t-36 -15t-35.5 15t-14.5 36zM263 52q0 21 14.5 35.5t35.5 14.5t36 -14.5t15 -35.5t-15 -36t-36 -15t-35.5 15t-14.5 36z
M262 165q0 21 15 36t36 15t36 -15t15 -36t-15 -36t-36 -15t-36 15t-15 36zM262 278q0 21 15 36t36 15t36 -15t15 -36t-15 -36t-36 -15t-36 15t-15 36zM262 391q0 21 15 36t36 15t35.5 -15t14.5 -36t-14.5 -35.5t-35.5 -14.5t-36 14.5t-15 35.5zM262 505q0 21 14.5 35.5
t35.5 14.5t36 -14.5t15 -35.5t-15 -36t-36 -15t-35.5 15t-14.5 36zM261 618q0 21 15 35.5t36 14.5t36 -14.5t15 -35.5t-15 -36t-36 -15t-36 15t-15 36zM261 731q0 21 15 36t36 15t36 -15t15 -36t-15 -36t-36 -15t-36 15t-15 36zM389 731q0 21 15 36t36 15t35.5 -15t14.5 -36
t-14.5 -35.5t-35.5 -14.5t-36 14.5t-15 35.5zM521 729q0 21 14.5 36t35.5 15t36 -15t15 -36t-15 -36t-36 -15t-35.5 15t-14.5 36z" />
    <glyph glyph-name="u" unicode="u" horiz-adv-x="777" 
d="M-2 164q0 21 15 36t36 15t35.5 -15t14.5 -36t-14.5 -35.5t-35.5 -14.5t-36 14.5t-15 35.5zM-2 277q0 21 14.5 36t35.5 15t36 -15t15 -36t-15 -35.5t-36 -14.5t-35.5 14.5t-14.5 35.5zM-3 391q0 21 15 35.5t36 14.5t36 -14.5t15 -35.5t-15 -36t-36 -15t-36 15t-15 36z
M-3 504q0 21 15 36t36 15t36 -15t15 -36t-15 -36t-36 -15t-36 15t-15 36zM-3 617q0 21 15 36t36 15t35.5 -15t14.5 -36t-14.5 -36t-35.5 -15t-36 15t-15 36zM-3 730q0 21 14.5 36t35.5 15t36 -15t15 -36t-15 -35.5t-36 -14.5t-35.5 14.5t-14.5 35.5zM129 49q0 21 15 35.5
t36 14.5t35.5 -14.5t14.5 -35.5t-14.5 -36t-35.5 -15t-36 15t-15 36zM263 52q0 21 14.5 35.5t35.5 14.5t36 -14.5t15 -35.5t-15 -36t-36 -15t-35.5 15t-14.5 36zM391 52q0 21 14.5 36t35.5 15t36 -15t15 -36t-15 -36t-36 -15t-35.5 15t-14.5 36zM522 163q0 21 15 36t36 15
t35.5 -15t14.5 -36t-14.5 -36t-35.5 -15t-36 15t-15 36zM522 276q0 21 14.5 36t35.5 15t36 -15t15 -36t-15 -36t-36 -15t-35.5 15t-14.5 36zM522 389q0 21 14.5 36t35.5 15t36 -15t15 -36t-15 -35.5t-36 -14.5t-35.5 14.5t-14.5 35.5zM521 503q0 21 15 35.5t36 14.5
t36 -14.5t15 -35.5t-15 -36t-36 -15t-36 15t-15 36zM521 616q0 21 15 35.5t36 14.5t35.5 -14.5t14.5 -35.5t-14.5 -36t-35.5 -15t-36 15t-15 36zM521 729q0 21 14.5 36t35.5 15t36 -15t15 -36t-15 -36t-36 -15t-35.5 15t-14.5 36z" />
    <glyph glyph-name="v" unicode="v" horiz-adv-x="774" 
d="M-2 277q0 21 14.5 36t35.5 15t36 -15t15 -36t-15 -35.5t-36 -14.5t-35.5 14.5t-14.5 35.5zM-3 391q0 21 15 35.5t36 14.5t36 -14.5t15 -35.5t-15 -36t-36 -15t-36 15t-15 36zM-3 504q0 21 15 36t36 15t36 -15t15 -36t-15 -36t-36 -15t-36 15t-15 36zM-3 617q0 21 15 36
t36 15t35.5 -15t14.5 -36t-14.5 -36t-35.5 -15t-36 15t-15 36zM-3 730q0 21 14.5 36t35.5 15t36 -15t15 -36t-15 -35.5t-36 -14.5t-35.5 14.5t-14.5 35.5zM129 162q0 21 15 36t36 15t35.5 -15t14.5 -36t-14.5 -36t-35.5 -15t-36 15t-15 36zM263 52q0 21 14.5 35.5t35.5 14.5
t36 -14.5t15 -35.5t-15 -36t-36 -15t-35.5 15t-14.5 36zM390 165q0 21 15 36t36 15t36 -15t15 -36t-15 -35.5t-36 -14.5t-36 14.5t-15 35.5zM522 276q0 21 14.5 36t35.5 15t36 -15t15 -36t-15 -36t-36 -15t-35.5 15t-14.5 36zM522 389q0 21 14.5 36t35.5 15t36 -15t15 -36
t-15 -35.5t-36 -14.5t-35.5 14.5t-14.5 35.5zM521 503q0 21 15 35.5t36 14.5t36 -14.5t15 -35.5t-15 -36t-36 -15t-36 15t-15 36zM521 616q0 21 15 35.5t36 14.5t35.5 -14.5t14.5 -35.5t-14.5 -36t-35.5 -15t-36 15t-15 36zM521 729q0 21 14.5 36t35.5 15t36 -15t15 -36
t-15 -36t-36 -15t-35.5 15t-14.5 36z" />
    <glyph glyph-name="w" unicode="w" horiz-adv-x="1038" 
d="M-2 164q0 21 15 36t36 15t35.5 -15t14.5 -36t-14.5 -35.5t-35.5 -14.5t-36 14.5t-15 35.5zM-2 277q0 21 14.5 36t35.5 15t36 -15t15 -36t-15 -35.5t-36 -14.5t-35.5 14.5t-14.5 35.5zM-3 391q0 21 15 35.5t36 14.5t36 -14.5t15 -35.5t-15 -36t-36 -15t-36 15t-15 36z
M-3 504q0 21 15 36t36 15t36 -15t15 -36t-15 -36t-36 -15t-36 15t-15 36zM-3 617q0 21 15 36t36 15t35.5 -15t14.5 -36t-14.5 -36t-35.5 -15t-36 15t-15 36zM-3 730q0 21 14.5 36t35.5 15t36 -15t15 -36t-15 -35.5t-36 -14.5t-35.5 14.5t-14.5 35.5zM129 49q0 21 15 35.5
t36 14.5t35.5 -14.5t14.5 -35.5t-14.5 -36t-35.5 -15t-36 15t-15 36zM263 52q0 21 14.5 35.5t35.5 14.5t36 -14.5t15 -35.5t-15 -36t-36 -15t-35.5 15t-14.5 36zM390 165q0 21 15 36t36 15t36 -15t15 -36t-15 -35.5t-36 -14.5t-36 14.5t-15 35.5zM390 278q0 21 15 36t36 15
t35.5 -15t14.5 -36t-14.5 -35.5t-35.5 -14.5t-36 14.5t-15 35.5zM390 392q0 21 14.5 35.5t35.5 14.5t36 -14.5t15 -35.5t-15 -36t-36 -15t-35.5 15t-14.5 36zM389 505q0 21 15 36t36 15t36 -15t15 -36t-15 -36t-36 -15t-36 15t-15 36zM389 618q0 21 15 36t36 15t36 -15
t15 -36t-15 -36t-36 -15t-36 15t-15 36zM389 731q0 21 15 36t36 15t35.5 -15t14.5 -36t-14.5 -35.5t-35.5 -14.5t-36 14.5t-15 35.5zM522 50q0 21 15 35.5t36 14.5t36 -14.5t15 -35.5t-15 -36t-36 -15t-36 15t-15 36zM653 50q0 21 15 36t36 15t35.5 -15t14.5 -36
t-14.5 -35.5t-35.5 -14.5t-36 14.5t-15 35.5zM784 166q0 21 14.5 36t35.5 15t36 -15t15 -36t-15 -35.5t-36 -14.5t-35.5 14.5t-14.5 35.5zM783 280q0 21 15 35.5t36 14.5t36 -14.5t15 -35.5t-15 -36t-36 -15t-36 15t-15 36zM783 393q0 21 15 35.5t36 14.5t35.5 -14.5
t14.5 -35.5t-14.5 -36t-35.5 -15t-36 15t-15 36zM783 506q0 21 15 36t36 15t35.5 -15t14.5 -36t-14.5 -36t-35.5 -15t-36 15t-15 36zM783 619q0 21 14.5 36t35.5 15t36 -15t15 -36t-15 -36t-36 -15t-35.5 15t-14.5 36zM782 732q0 21 15 36t36 15t36 -15t15 -36t-15 -35.5
t-36 -14.5t-36 14.5t-15 35.5z" />
    <glyph glyph-name="x" unicode="x" horiz-adv-x="774" 
d="M-2 51q0 21 15 36t36 15t36 -15t15 -36t-15 -36t-36 -15t-36 15t-15 36zM-2 164q0 21 15 36t36 15t35.5 -15t14.5 -36t-14.5 -35.5t-35.5 -14.5t-36 14.5t-15 35.5zM-3 617q0 21 15 36t36 15t35.5 -15t14.5 -36t-14.5 -36t-35.5 -15t-36 15t-15 36zM-3 730q0 21 14.5 36
t35.5 15t36 -15t15 -36t-15 -35.5t-36 -14.5t-35.5 14.5t-14.5 35.5zM129 275q0 21 14.5 36t35.5 15t36 -15t15 -36t-15 -35.5t-36 -14.5t-35.5 14.5t-14.5 35.5zM128 502q0 21 15 35.5t36 14.5t35.5 -14.5t14.5 -35.5t-14.5 -36t-35.5 -15t-36 15t-15 36zM262 391
q0 21 15 36t36 15t35.5 -15t14.5 -36t-14.5 -35.5t-35.5 -14.5t-36 14.5t-15 35.5zM390 278q0 21 15 36t36 15t35.5 -15t14.5 -36t-14.5 -35.5t-35.5 -14.5t-36 14.5t-15 35.5zM389 505q0 21 15 36t36 15t36 -15t15 -36t-15 -36t-36 -15t-36 15t-15 36zM522 50q0 21 15 35.5
t36 14.5t36 -14.5t15 -35.5t-15 -36t-36 -15t-36 15t-15 36zM522 163q0 21 15 36t36 15t35.5 -15t14.5 -36t-14.5 -36t-35.5 -15t-36 15t-15 36zM521 616q0 21 15 35.5t36 14.5t35.5 -14.5t14.5 -35.5t-14.5 -36t-35.5 -15t-36 15t-15 36zM521 729q0 21 14.5 36t35.5 15
t36 -15t15 -36t-15 -36t-36 -15t-35.5 15t-14.5 36z" />
    <glyph glyph-name="y" unicode="y" horiz-adv-x="748" 
d="M-3 504q0 21 15 36t36 15t36 -15t15 -36t-15 -36t-36 -15t-36 15t-15 36zM-3 617q0 21 15 36t36 15t35.5 -15t14.5 -36t-14.5 -36t-35.5 -15t-36 15t-15 36zM-3 730q0 21 14.5 36t35.5 15t36 -15t15 -36t-15 -35.5t-36 -14.5t-35.5 14.5t-14.5 35.5zM128 388q0 21 15 36
t36 15t36 -15t15 -36t-15 -35.5t-36 -14.5t-36 14.5t-15 35.5zM263 52q0 21 14.5 35.5t35.5 14.5t36 -14.5t15 -35.5t-15 -36t-36 -15t-35.5 15t-14.5 36zM262 165q0 21 15 36t36 15t36 -15t15 -36t-15 -36t-36 -15t-36 15t-15 36zM262 278q0 21 15 36t36 15t36 -15t15 -36
t-15 -36t-36 -15t-36 15t-15 36zM262 391q0 21 15 36t36 15t35.5 -15t14.5 -36t-14.5 -35.5t-35.5 -14.5t-36 14.5t-15 35.5zM390 392q0 21 14.5 35.5t35.5 14.5t36 -14.5t15 -35.5t-15 -36t-36 -15t-35.5 15t-14.5 36zM521 503q0 21 15 35.5t36 14.5t36 -14.5t15 -35.5
t-15 -36t-36 -15t-36 15t-15 36zM521 616q0 21 15 35.5t36 14.5t35.5 -14.5t14.5 -35.5t-14.5 -36t-35.5 -15t-36 15t-15 36zM521 729q0 21 14.5 36t35.5 15t36 -15t15 -36t-15 -36t-36 -15t-35.5 15t-14.5 36z" />
    <glyph glyph-name="z" unicode="z" horiz-adv-x="736" 
d="M-2 51q0 21 15 36t36 15t36 -15t15 -36t-15 -36t-36 -15t-36 15t-15 36zM-2 164q0 21 15 36t36 15t35.5 -15t14.5 -36t-14.5 -35.5t-35.5 -14.5t-36 14.5t-15 35.5zM-3 730q0 21 14.5 36t35.5 15t36 -15t15 -36t-15 -35.5t-36 -14.5t-35.5 14.5t-14.5 35.5zM129 49
q0 21 15 35.5t36 14.5t35.5 -14.5t14.5 -35.5t-14.5 -36t-35.5 -15t-36 15t-15 36zM129 275q0 21 14.5 36t35.5 15t36 -15t15 -36t-15 -35.5t-36 -14.5t-35.5 14.5t-14.5 35.5zM128 728q0 21 14.5 36t35.5 15t36 -15t15 -36t-15 -36t-36 -15t-35.5 15t-14.5 36zM263 52
q0 21 14.5 35.5t35.5 14.5t36 -14.5t15 -35.5t-15 -36t-36 -15t-35.5 15t-14.5 36zM262 391q0 21 15 36t36 15t35.5 -15t14.5 -36t-14.5 -35.5t-35.5 -14.5t-36 14.5t-15 35.5zM261 731q0 21 15 36t36 15t36 -15t15 -36t-15 -36t-36 -15t-36 15t-15 36zM391 52q0 21 14.5 36
t35.5 15t36 -15t15 -36t-15 -36t-36 -15t-35.5 15t-14.5 36zM389 505q0 21 15 36t36 15t36 -15t15 -36t-15 -36t-36 -15t-36 15t-15 36zM389 731q0 21 15 36t36 15t35.5 -15t14.5 -36t-14.5 -35.5t-35.5 -14.5t-36 14.5t-15 35.5zM522 50q0 21 15 35.5t36 14.5t36 -14.5
t15 -35.5t-15 -36t-36 -15t-36 15t-15 36zM521 616q0 21 15 35.5t36 14.5t35.5 -14.5t14.5 -35.5t-14.5 -36t-35.5 -15t-36 15t-15 36zM521 729q0 21 14.5 36t35.5 15t36 -15t15 -36t-15 -36t-36 -15t-35.5 15t-14.5 36z" />
    <glyph glyph-name="Amacron" unicode="&#x100;" 
 />
    <glyph glyph-name="amacron" unicode="&#x101;" 
 />
    <glyph glyph-name="Abreve" unicode="&#x102;" 
 />
    <glyph glyph-name="abreve" unicode="&#x103;" 
 />
    <glyph glyph-name="Aogonek" unicode="&#x104;" 
 />
    <glyph glyph-name="aogonek" unicode="&#x105;" 
 />
    <glyph glyph-name="quoteleft" unicode="&#x2018;" horiz-adv-x="255" 
d="M-3 617q0 21 15 36t36 15t35.5 -15t14.5 -36t-14.5 -36t-35.5 -15t-36 15t-15 36zM-3 730q0 21 14.5 36t35.5 15t36 -15t15 -36t-15 -35.5t-36 -14.5t-35.5 14.5t-14.5 35.5z" />
    <glyph glyph-name="quoteright" unicode="&#x2019;" horiz-adv-x="255" 
d="M-3 617q0 21 15 36t36 15t35.5 -15t14.5 -36t-14.5 -36t-35.5 -15t-36 15t-15 36zM-3 730q0 21 14.5 36t35.5 15t36 -15t15 -36t-15 -35.5t-36 -14.5t-35.5 14.5t-14.5 35.5z" />
    <glyph glyph-name="quotedblleft" unicode="&#x201c;" horiz-adv-x="386" 
d="M-3 617q0 21 15 36t36 15t35.5 -15t14.5 -36t-14.5 -36t-35.5 -15t-36 15t-15 36zM-3 730q0 21 14.5 36t35.5 15t36 -15t15 -36t-15 -35.5t-36 -14.5t-35.5 14.5t-14.5 35.5zM128 615q0 21 15 36t36 15t35.5 -15t14.5 -36t-14.5 -36t-35.5 -15t-36 15t-15 36zM128 728
q0 21 14.5 36t35.5 15t36 -15t15 -36t-15 -36t-36 -15t-35.5 15t-14.5 36z" />
    <glyph glyph-name="quotedblright" unicode="&#x201d;" horiz-adv-x="386" 
d="M-3 617q0 21 15 36t36 15t35.5 -15t14.5 -36t-14.5 -36t-35.5 -15t-36 15t-15 36zM-3 730q0 21 14.5 36t35.5 15t36 -15t15 -36t-15 -35.5t-36 -14.5t-35.5 14.5t-14.5 35.5zM128 615q0 21 15 36t36 15t35.5 -15t14.5 -36t-14.5 -36t-35.5 -15t-36 15t-15 36zM128 728
q0 21 14.5 36t35.5 15t36 -15t15 -36t-15 -36t-36 -15t-35.5 15t-14.5 36z" />
    <glyph glyph-name="glyph100" 
 />
    <glyph glyph-name="glyph101" 
 />
    <glyph glyph-name="glyph90" 
 />
    <glyph glyph-name="glyph91" 
 />
    <glyph glyph-name="glyph92" 
 />
    <glyph glyph-name="glyph93" 
 />
    <glyph glyph-name="glyph104" 
 />
    <glyph glyph-name="glyph105" 
 />
    <glyph glyph-name="glyph94" 
 />
    <glyph glyph-name="glyph95" 
 />
    <glyph glyph-name="glyph98" 
 />
    <glyph glyph-name="glyph99" 
 />
  </font>
</defs>
</svg>
